G75*
G70*
%OFA0B0*%
%FSLAX24Y24*%
%IPPOS*%
%LPD*%
%AMOC8*
5,1,8,0,0,1.08239X$1,22.5*
%
%ADD10C,0.0040*%
%ADD11C,0.0030*%
%ADD12C,0.0080*%
%ADD13R,0.0100X0.0010*%
%ADD14R,0.0160X0.0010*%
%ADD15R,0.0170X0.0010*%
%ADD16R,0.0210X0.0010*%
%ADD17R,0.0110X0.0010*%
%ADD18R,0.0090X0.0010*%
%ADD19R,0.0200X0.0010*%
%ADD20R,0.0240X0.0010*%
%ADD21R,0.0230X0.0010*%
%ADD22R,0.0120X0.0010*%
%ADD23R,0.0260X0.0010*%
%ADD24R,0.0250X0.0010*%
%ADD25R,0.0270X0.0010*%
%ADD26R,0.0130X0.0010*%
%ADD27R,0.0280X0.0010*%
%ADD28R,0.0290X0.0010*%
%ADD29R,0.0140X0.0010*%
%ADD30R,0.0310X0.0010*%
%ADD31R,0.0300X0.0010*%
%ADD32R,0.0150X0.0010*%
%ADD33R,0.0180X0.0010*%
%ADD34R,0.0190X0.0010*%
%ADD35R,0.0220X0.0010*%
%ADD36R,0.0320X0.0010*%
%ADD37R,0.0330X0.0010*%
%ADD38R,0.0060X0.0010*%
%ADD39R,0.0080X0.0010*%
%ADD40R,0.0070X0.0010*%
%ADD41R,0.0020X0.0010*%
%ADD42R,0.0030X0.0010*%
%ADD43R,0.0570X0.0010*%
%ADD44R,0.0640X0.0010*%
%ADD45R,0.0680X0.0010*%
%ADD46R,0.0720X0.0010*%
%ADD47R,0.0750X0.0010*%
%ADD48R,0.0780X0.0010*%
%ADD49R,0.0800X0.0010*%
%ADD50R,0.0830X0.0010*%
%ADD51R,0.0850X0.0010*%
%ADD52R,0.0860X0.0010*%
%ADD53R,0.0880X0.0010*%
%ADD54R,0.0890X0.0010*%
%ADD55R,0.0910X0.0010*%
%ADD56R,0.0930X0.0010*%
%ADD57R,0.0940X0.0010*%
%ADD58R,0.0950X0.0010*%
%ADD59R,0.0960X0.0010*%
%ADD60R,0.0970X0.0010*%
%ADD61R,0.0980X0.0010*%
%ADD62R,0.0990X0.0010*%
%ADD63R,0.1000X0.0010*%
%ADD64R,0.0730X0.0010*%
%ADD65R,0.0370X0.0010*%
%ADD66R,0.0400X0.0010*%
%ADD67R,0.0660X0.0010*%
%ADD68R,0.0040X0.0010*%
%ADD69R,0.0430X0.0010*%
%ADD70R,0.0630X0.0010*%
%ADD71R,0.0460X0.0010*%
%ADD72R,0.0610X0.0010*%
%ADD73R,0.0500X0.0010*%
%ADD74R,0.0590X0.0010*%
%ADD75R,0.0530X0.0010*%
%ADD76R,0.0560X0.0010*%
%ADD77R,0.0550X0.0010*%
%ADD78R,0.0540X0.0010*%
%ADD79R,0.0620X0.0010*%
%ADD80R,0.0350X0.0010*%
%ADD81R,0.0650X0.0010*%
%ADD82R,0.0380X0.0010*%
%ADD83R,0.0520X0.0010*%
%ADD84R,0.0390X0.0010*%
%ADD85R,0.0410X0.0010*%
%ADD86R,0.0420X0.0010*%
%ADD87R,0.0490X0.0010*%
%ADD88R,0.0440X0.0010*%
%ADD89R,0.0480X0.0010*%
%ADD90R,0.0470X0.0010*%
%ADD91R,0.0450X0.0010*%
%ADD92R,0.0510X0.0010*%
%ADD93R,0.0600X0.0010*%
%ADD94R,0.0670X0.0010*%
%ADD95R,0.0690X0.0010*%
%ADD96R,0.0740X0.0010*%
%ADD97R,0.0760X0.0010*%
%ADD98R,0.0770X0.0010*%
%ADD99R,0.0790X0.0010*%
%ADD100R,0.0360X0.0010*%
%ADD101R,0.0810X0.0010*%
%ADD102R,0.0820X0.0010*%
%ADD103R,0.0840X0.0010*%
%ADD104R,0.0340X0.0010*%
%ADD105R,0.0870X0.0010*%
%ADD106R,0.0900X0.0010*%
%ADD107R,0.0920X0.0010*%
%ADD108R,0.0700X0.0010*%
%ADD109R,0.0580X0.0010*%
%ADD110R,0.0050X0.0010*%
%ADD111R,0.0010X0.0010*%
%ADD112R,0.0710X0.0010*%
%ADD113R,0.1030X0.0010*%
%ADD114R,0.1370X0.0010*%
%ADD115R,0.1380X0.0010*%
%ADD116R,0.1390X0.0010*%
%ADD117R,0.1400X0.0010*%
%ADD118R,0.1410X0.0010*%
%ADD119R,0.1420X0.0010*%
%ADD120R,0.1430X0.0010*%
%ADD121R,0.1440X0.0010*%
%ADD122R,0.1450X0.0010*%
%ADD123R,0.1460X0.0010*%
%ADD124R,0.1470X0.0010*%
%ADD125R,0.1480X0.0010*%
%ADD126R,0.1490X0.0010*%
%ADD127R,0.1500X0.0010*%
%ADD128R,0.1510X0.0010*%
%ADD129R,0.1650X0.0010*%
%ADD130R,0.1620X0.0010*%
%ADD131R,0.1590X0.0010*%
%ADD132R,0.1570X0.0010*%
%ADD133R,0.1540X0.0010*%
%ADD134R,0.1250X0.0010*%
%ADD135R,0.1210X0.0010*%
%ADD136R,0.1160X0.0010*%
%ADD137R,0.1110X0.0010*%
%ADD138R,0.1050X0.0010*%
%ADD139R,0.1040X0.0010*%
%ADD140R,0.1080X0.0010*%
%ADD141R,0.1130X0.0010*%
%ADD142R,0.1170X0.0010*%
%ADD143R,0.1890X0.0010*%
%ADD144R,0.1860X0.0010*%
%ADD145R,0.1820X0.0010*%
%ADD146R,0.1790X0.0010*%
%ADD147R,0.1750X0.0010*%
%ADD148R,0.1710X0.0010*%
%ADD149R,0.1670X0.0010*%
%ADD150R,0.1630X0.0010*%
%ADD151R,0.1550X0.0010*%
%ADD152R,0.1350X0.0010*%
%ADD153R,0.1300X0.0010*%
%ADD154R,0.1190X0.0010*%
%ADD155R,0.1060X0.0010*%
D10*
X015511Y015136D02*
X015511Y015213D01*
X015587Y015213D01*
X015587Y015136D01*
X015511Y015136D01*
X015511Y015366D02*
X015587Y015366D01*
X015587Y015443D01*
X015511Y015443D01*
X015511Y015366D01*
X015741Y015366D02*
X015818Y015443D01*
X015971Y015443D01*
X016048Y015366D01*
X016048Y015213D01*
X015971Y015136D01*
X015818Y015136D01*
X015741Y015213D01*
X015741Y015366D01*
X016201Y015443D02*
X016355Y015443D01*
X016278Y015520D02*
X016278Y015213D01*
X016201Y015136D01*
X016508Y015366D02*
X016815Y015366D01*
X016968Y015443D02*
X016968Y015213D01*
X017045Y015136D01*
X017122Y015213D01*
X017199Y015136D01*
X017275Y015213D01*
X017275Y015443D01*
X017429Y015366D02*
X017505Y015443D01*
X017659Y015443D01*
X017736Y015366D01*
X017736Y015213D01*
X017659Y015136D01*
X017505Y015136D01*
X017429Y015213D01*
X017429Y015366D01*
X017889Y015366D02*
X018196Y015366D01*
X018196Y015136D02*
X018196Y015596D01*
X017889Y015596D02*
X017889Y015136D01*
D11*
X001824Y003781D02*
X001763Y003843D01*
X001763Y003966D01*
X001824Y004028D01*
X001886Y004028D01*
X002009Y003966D01*
X002009Y004151D01*
X001763Y004151D01*
X001824Y003781D02*
X001948Y003781D01*
X002009Y003843D01*
X002131Y003843D02*
X002131Y004089D01*
X002378Y003843D01*
X002316Y003781D01*
X002193Y003781D01*
X002131Y003843D01*
X002131Y004089D02*
X002193Y004151D01*
X002316Y004151D01*
X002378Y004089D01*
X002378Y003843D01*
X002499Y003966D02*
X002746Y003966D01*
X002867Y003904D02*
X002867Y003843D01*
X002929Y003781D01*
X003053Y003781D01*
X003114Y003843D01*
X002991Y003966D02*
X002929Y003966D01*
X002867Y003904D01*
X002929Y003966D02*
X002867Y004028D01*
X002867Y004089D01*
X002929Y004151D01*
X003053Y004151D01*
X003114Y004089D01*
X003236Y004028D02*
X003359Y003781D01*
X003483Y004028D01*
X003972Y003966D02*
X003972Y003781D01*
X003972Y003966D02*
X004034Y004028D01*
X004219Y004028D01*
X004219Y003781D01*
X004341Y003781D02*
X004465Y003781D01*
X004403Y003781D02*
X004403Y004028D01*
X004465Y004028D01*
X004586Y003966D02*
X004586Y003843D01*
X004648Y003781D01*
X004833Y003781D01*
X004833Y003657D02*
X004833Y004028D01*
X004648Y004028D01*
X004586Y003966D01*
X004403Y004151D02*
X004403Y004213D01*
X005323Y004151D02*
X005570Y004151D01*
X005570Y003781D01*
X005691Y003843D02*
X005753Y003781D01*
X005876Y003781D01*
X005938Y003843D01*
X005938Y004089D01*
X005876Y004151D01*
X005753Y004151D01*
X005691Y004089D01*
X005570Y003966D02*
X005446Y003966D01*
X006059Y003843D02*
X006121Y003781D01*
X006245Y003781D01*
X006306Y003843D01*
X006306Y004089D01*
X006245Y004151D01*
X006121Y004151D01*
X006059Y004089D01*
X006428Y004089D02*
X006489Y004151D01*
X006613Y004151D01*
X006675Y004089D01*
X006675Y003843D01*
X006613Y003781D01*
X006489Y003781D01*
X006428Y003843D01*
X006428Y003966D01*
X006551Y003966D01*
X006796Y003904D02*
X006796Y003843D01*
X006858Y003781D01*
X007043Y003781D01*
X007043Y004151D01*
X006858Y004151D01*
X006796Y004089D01*
X006796Y004028D01*
X006858Y003966D01*
X007043Y003966D01*
X006858Y003966D02*
X006796Y003904D01*
X012869Y009913D02*
X012931Y009851D01*
X013116Y009851D01*
X013237Y009851D02*
X013237Y010098D01*
X013116Y010098D02*
X013116Y009727D01*
X013237Y009851D02*
X013422Y009851D01*
X013484Y009913D01*
X013484Y010098D01*
X013116Y010098D02*
X012931Y010098D01*
X012869Y010036D01*
X012869Y009913D01*
X013974Y009974D02*
X014221Y009974D01*
X014221Y009913D02*
X014221Y010036D01*
X014159Y010098D01*
X014035Y010098D01*
X013974Y010036D01*
X013974Y009974D01*
X014035Y009851D02*
X014159Y009851D01*
X014221Y009913D01*
X014342Y009851D02*
X014527Y009851D01*
X014589Y009913D01*
X014589Y010036D01*
X014527Y010098D01*
X014342Y010098D01*
X014342Y010221D02*
X014342Y009851D01*
X014711Y009851D02*
X014834Y009851D01*
X014773Y009851D02*
X014773Y010098D01*
X014834Y010098D01*
X014956Y010098D02*
X015141Y010098D01*
X015203Y010036D01*
X015141Y009974D01*
X015018Y009974D01*
X014956Y009913D01*
X015018Y009851D01*
X015203Y009851D01*
X015693Y009974D02*
X015817Y009851D01*
X015693Y009974D02*
X015693Y010098D01*
X015817Y010221D01*
X015938Y010036D02*
X016185Y010036D01*
X016061Y010159D02*
X016061Y009913D01*
X016307Y009851D02*
X016430Y009974D01*
X016430Y010098D01*
X016307Y010221D01*
X016920Y010098D02*
X016920Y009789D01*
X016982Y009727D01*
X017044Y009727D01*
X017105Y009851D02*
X016920Y009851D01*
X017105Y009851D02*
X017167Y009913D01*
X017167Y010098D01*
X017289Y010098D02*
X017350Y010098D01*
X017474Y009974D01*
X017595Y009974D02*
X017842Y009974D01*
X017842Y009913D02*
X017842Y010036D01*
X017781Y010098D01*
X017657Y010098D01*
X017595Y010036D01*
X017595Y009974D01*
X017657Y009851D02*
X017781Y009851D01*
X017842Y009913D01*
X017964Y009851D02*
X018026Y009913D01*
X018026Y010159D01*
X018088Y010098D02*
X017964Y010098D01*
X018210Y010098D02*
X018333Y010098D01*
X018272Y010159D02*
X018272Y009913D01*
X018210Y009851D01*
X018455Y009851D02*
X018455Y010036D01*
X018516Y010098D01*
X018640Y010098D01*
X018640Y009974D02*
X018455Y009974D01*
X018455Y009851D02*
X018640Y009851D01*
X018702Y009913D01*
X018640Y009974D01*
X018823Y009913D02*
X018823Y010036D01*
X018885Y010098D01*
X019070Y010098D01*
X019070Y010221D02*
X019070Y009851D01*
X018885Y009851D01*
X018823Y009913D01*
X019560Y009851D02*
X019622Y009913D01*
X019622Y010159D01*
X019684Y010098D02*
X019560Y010098D01*
X019805Y010098D02*
X019867Y010098D01*
X019991Y009974D01*
X020112Y009974D02*
X020359Y009974D01*
X020359Y009913D02*
X020359Y010036D01*
X020297Y010098D01*
X020174Y010098D01*
X020112Y010036D01*
X020112Y009974D01*
X020174Y009851D02*
X020297Y009851D01*
X020359Y009913D01*
X020480Y009913D02*
X020542Y009974D01*
X020665Y009974D01*
X020727Y010036D01*
X020665Y010098D01*
X020480Y010098D01*
X020480Y009913D02*
X020542Y009851D01*
X020727Y009851D01*
X020849Y009851D02*
X020849Y010036D01*
X020910Y010098D01*
X021095Y010098D01*
X021095Y009851D01*
X021218Y009851D02*
X021341Y009851D01*
X021279Y009851D02*
X021279Y010221D01*
X021218Y010221D02*
X021341Y010221D01*
X021443Y010831D02*
X021443Y011078D01*
X021443Y010954D02*
X021319Y011078D01*
X021258Y011078D01*
X021136Y011078D02*
X021074Y011078D01*
X021074Y010831D01*
X021136Y010831D02*
X021012Y010831D01*
X020890Y010831D02*
X020890Y011078D01*
X020829Y011078D01*
X020767Y011016D01*
X020705Y011078D01*
X020643Y011016D01*
X020643Y010831D01*
X020767Y010831D02*
X020767Y011016D01*
X021074Y011201D02*
X021074Y011263D01*
X021564Y011201D02*
X021811Y011201D01*
X021688Y011201D02*
X021688Y010831D01*
X021631Y011831D02*
X021693Y011893D01*
X021693Y012016D01*
X021631Y012078D01*
X021508Y012078D01*
X021446Y012016D01*
X021446Y011893D01*
X021508Y011831D01*
X021631Y011831D01*
X021814Y011831D02*
X021814Y012201D01*
X021938Y012078D01*
X022061Y012201D01*
X022061Y011831D01*
X021324Y011893D02*
X021263Y011831D01*
X021078Y011831D01*
X021078Y012078D01*
X020956Y012078D02*
X020956Y011831D01*
X020709Y011831D02*
X020709Y012016D01*
X020771Y012078D01*
X020956Y012078D01*
X020588Y012078D02*
X020464Y012078D01*
X020526Y012139D02*
X020526Y011893D01*
X020464Y011831D01*
X019974Y011831D02*
X019974Y012201D01*
X019974Y011831D02*
X019727Y011831D01*
X019606Y011831D02*
X019606Y012201D01*
X019359Y012201D01*
X019237Y012201D02*
X019052Y012201D01*
X018990Y012139D01*
X018990Y011893D01*
X019052Y011831D01*
X019237Y011831D01*
X019237Y012201D01*
X019482Y012016D02*
X019606Y012016D01*
X019606Y011831D02*
X019359Y011831D01*
X018869Y011831D02*
X018684Y011831D01*
X018622Y011893D01*
X018684Y011954D01*
X018807Y011954D01*
X018869Y012016D01*
X018807Y012078D01*
X018622Y012078D01*
X018132Y012078D02*
X018009Y012078D01*
X018071Y012139D02*
X018071Y011893D01*
X018009Y011831D01*
X017887Y011893D02*
X017887Y012016D01*
X017825Y012078D01*
X017702Y012078D01*
X017640Y012016D01*
X017640Y011893D01*
X017702Y011831D01*
X017825Y011831D01*
X017887Y011893D01*
X017150Y012016D02*
X017027Y012016D01*
X016905Y011954D02*
X016781Y012078D01*
X016720Y012078D01*
X016598Y012016D02*
X016598Y011893D01*
X016536Y011831D01*
X016413Y011831D01*
X016351Y011893D01*
X016351Y012016D01*
X016413Y012078D01*
X016536Y012078D01*
X016598Y012016D01*
X016905Y012078D02*
X016905Y011831D01*
X017089Y011831D02*
X017089Y012139D01*
X017027Y012201D01*
X016745Y012787D02*
X016745Y013158D01*
X016560Y013158D01*
X016498Y013096D01*
X016498Y012973D01*
X016560Y012911D01*
X016745Y012911D01*
X016867Y012911D02*
X016991Y012911D01*
X016929Y012911D02*
X016929Y013158D01*
X016991Y013158D01*
X016929Y013281D02*
X016929Y013343D01*
X017174Y013281D02*
X017174Y012911D01*
X017113Y012911D02*
X017236Y012911D01*
X017358Y012911D02*
X017543Y012911D01*
X017604Y012973D01*
X017604Y013096D01*
X017543Y013158D01*
X017358Y013158D01*
X017236Y013281D02*
X017174Y013281D01*
X016940Y013891D02*
X016940Y014199D01*
X016879Y014261D01*
X016757Y014138D02*
X016757Y013891D01*
X016757Y014014D02*
X016633Y014138D01*
X016571Y014138D01*
X016450Y014076D02*
X016450Y013953D01*
X016388Y013891D01*
X016265Y013891D01*
X016203Y013953D01*
X016203Y014076D01*
X016265Y014138D01*
X016388Y014138D01*
X016450Y014076D01*
X016879Y014076D02*
X017002Y014076D01*
X017492Y014076D02*
X017492Y013891D01*
X017615Y013891D02*
X017615Y014076D01*
X017554Y014138D01*
X017492Y014076D01*
X017615Y014076D02*
X017677Y014138D01*
X017739Y014138D01*
X017739Y013891D01*
X017860Y013953D02*
X017860Y014076D01*
X017922Y014138D01*
X018045Y014138D01*
X018107Y014076D01*
X018107Y013953D01*
X018045Y013891D01*
X017922Y013891D01*
X017860Y013953D01*
X018229Y014138D02*
X018290Y014138D01*
X018414Y014014D01*
X018414Y013891D02*
X018414Y014138D01*
X018536Y014076D02*
X018659Y014076D01*
X018598Y014199D02*
X018536Y014261D01*
X018598Y014199D02*
X018598Y013891D01*
X019149Y013891D02*
X019149Y014076D01*
X019211Y014138D01*
X019396Y014138D01*
X019396Y013891D01*
X019518Y013891D02*
X019642Y013891D01*
X019580Y013891D02*
X019580Y014138D01*
X019642Y014138D01*
X019763Y014076D02*
X019763Y013953D01*
X019825Y013891D01*
X020010Y013891D01*
X020010Y013767D02*
X020010Y014138D01*
X019825Y014138D01*
X019763Y014076D01*
X019580Y014261D02*
X019580Y014323D01*
X020500Y014138D02*
X020624Y014138D01*
X020562Y014199D02*
X020562Y013953D01*
X020500Y013891D01*
X020745Y014138D02*
X020807Y014138D01*
X020931Y014014D01*
X021052Y014014D02*
X021299Y014014D01*
X021299Y013953D02*
X021299Y014076D01*
X021237Y014138D01*
X021114Y014138D01*
X021052Y014076D01*
X021052Y014014D01*
X021114Y013891D02*
X021237Y013891D01*
X021299Y013953D01*
X021420Y013953D02*
X021482Y014014D01*
X021605Y014014D01*
X021667Y014076D01*
X021605Y014138D01*
X021420Y014138D01*
X021420Y013953D02*
X021482Y013891D01*
X021667Y013891D01*
X021789Y013891D02*
X021789Y014076D01*
X021850Y014138D01*
X022035Y014138D01*
X022035Y013891D01*
X022158Y013891D02*
X022281Y013891D01*
X022219Y013891D02*
X022219Y014261D01*
X022158Y014261D02*
X022281Y014261D01*
X022331Y013281D02*
X022208Y013158D01*
X022084Y013281D01*
X022084Y012911D01*
X021963Y012973D02*
X021901Y012911D01*
X021778Y012911D01*
X021716Y012973D01*
X021716Y013096D01*
X021778Y013158D01*
X021901Y013158D01*
X021963Y013096D01*
X021963Y012973D01*
X021594Y012973D02*
X021533Y012911D01*
X021348Y012911D01*
X021348Y013158D01*
X021226Y013158D02*
X021226Y012911D01*
X020979Y012911D02*
X020979Y013096D01*
X021041Y013158D01*
X021226Y013158D01*
X020858Y013158D02*
X020734Y013158D01*
X020796Y013219D02*
X020796Y012973D01*
X020734Y012911D01*
X020244Y012911D02*
X020244Y013281D01*
X020244Y013158D02*
X020059Y013158D01*
X019997Y013096D01*
X019997Y012973D01*
X020059Y012911D01*
X020244Y012911D01*
X019876Y012973D02*
X019814Y012911D01*
X019629Y012911D01*
X019629Y013096D01*
X019690Y013158D01*
X019814Y013158D01*
X019814Y013034D02*
X019629Y013034D01*
X019507Y013158D02*
X019384Y013158D01*
X019446Y013219D02*
X019446Y012973D01*
X019384Y012911D01*
X019200Y012973D02*
X019138Y012911D01*
X019200Y012973D02*
X019200Y013219D01*
X019262Y013158D02*
X019138Y013158D01*
X019016Y013096D02*
X018955Y013158D01*
X018831Y013158D01*
X018769Y013096D01*
X018769Y013034D01*
X019016Y013034D01*
X019016Y012973D02*
X019016Y013096D01*
X019016Y012973D02*
X018955Y012911D01*
X018831Y012911D01*
X018648Y012911D02*
X018648Y013158D01*
X018525Y013158D02*
X018463Y013158D01*
X018525Y013158D02*
X018648Y013034D01*
X018341Y012973D02*
X018279Y012911D01*
X018094Y012911D01*
X018094Y012849D02*
X018156Y012787D01*
X018218Y012787D01*
X018094Y012849D02*
X018094Y013158D01*
X018341Y013158D02*
X018341Y012973D01*
X019814Y013034D02*
X019876Y012973D01*
X020931Y013891D02*
X020931Y014138D01*
X021594Y013158D02*
X021594Y012973D01*
X022331Y012911D02*
X022331Y013281D01*
X021324Y012078D02*
X021324Y011893D01*
X020154Y011201D02*
X020154Y010831D01*
X019907Y010831D01*
X019785Y010831D02*
X019539Y010831D01*
X019417Y010831D02*
X019417Y011201D01*
X019232Y011201D01*
X019170Y011139D01*
X019170Y010893D01*
X019232Y010831D01*
X019417Y010831D01*
X019662Y011016D02*
X019785Y011016D01*
X019785Y011201D02*
X019785Y010831D01*
X019785Y011201D02*
X019539Y011201D01*
X019049Y011016D02*
X018987Y010954D01*
X018864Y010954D01*
X018802Y010893D01*
X018864Y010831D01*
X019049Y010831D01*
X019049Y011016D02*
X018987Y011078D01*
X018802Y011078D01*
X019991Y010098D02*
X019991Y009851D01*
X017474Y009851D02*
X017474Y010098D01*
X016230Y011831D02*
X016230Y012078D01*
X016044Y012078D01*
X015983Y012016D01*
X015983Y011831D01*
X015800Y011893D02*
X015800Y012139D01*
X015861Y012078D02*
X015738Y012078D01*
X015800Y011893D02*
X015738Y011831D01*
X015616Y011831D02*
X015554Y011831D01*
X015554Y011893D01*
X015616Y011893D01*
X015616Y011831D01*
X015063Y011831D02*
X014816Y011831D01*
X014695Y011893D02*
X014633Y011831D01*
X014510Y011831D01*
X014448Y011893D01*
X014448Y012016D01*
X014510Y012078D01*
X014633Y012078D01*
X014695Y012016D01*
X014695Y011893D01*
X015063Y011831D02*
X015063Y012201D01*
X014904Y012911D02*
X014718Y012911D01*
X014657Y012973D01*
X014657Y013096D01*
X014718Y013158D01*
X014904Y013158D01*
X014904Y013281D02*
X014904Y012911D01*
X014535Y012973D02*
X014474Y013034D01*
X014288Y013034D01*
X014288Y013096D02*
X014288Y012911D01*
X014474Y012911D01*
X014535Y012973D01*
X014474Y013158D02*
X014350Y013158D01*
X014288Y013096D01*
X014167Y013096D02*
X014167Y012973D01*
X014105Y012911D01*
X013920Y012911D01*
X013799Y012911D02*
X013799Y013281D01*
X013920Y013158D02*
X014105Y013158D01*
X014167Y013096D01*
X013799Y013034D02*
X013614Y013158D01*
X013799Y013034D02*
X013614Y012911D01*
X013492Y012787D02*
X013368Y012911D01*
X013430Y012911D01*
X013430Y012973D01*
X013368Y012973D01*
X013368Y012911D01*
X012878Y013158D02*
X012755Y013158D01*
X012816Y013219D02*
X012816Y012973D01*
X012755Y012911D01*
X012632Y012911D02*
X012632Y013281D01*
X012571Y013158D02*
X012447Y013158D01*
X012386Y013096D01*
X012386Y012911D01*
X012264Y012973D02*
X012264Y013096D01*
X012202Y013158D01*
X012079Y013158D01*
X012017Y013096D01*
X012017Y013034D01*
X012264Y013034D01*
X012264Y012973D02*
X012202Y012911D01*
X012079Y012911D01*
X011896Y012911D02*
X011896Y013158D01*
X011711Y013158D01*
X011649Y013096D01*
X011649Y012911D01*
X011159Y012911D02*
X010974Y012911D01*
X010912Y012973D01*
X010974Y013034D01*
X011098Y013034D01*
X011159Y013096D01*
X011098Y013158D01*
X010912Y013158D01*
X010791Y013096D02*
X010791Y012973D01*
X010729Y012911D01*
X010606Y012911D01*
X010544Y012973D01*
X010544Y013096D01*
X010606Y013158D01*
X010729Y013158D01*
X010791Y013096D01*
X010423Y012911D02*
X010299Y012911D01*
X010361Y012911D02*
X010361Y013281D01*
X010423Y013281D01*
X010177Y013096D02*
X010115Y013158D01*
X009930Y013158D01*
X009930Y013281D02*
X009930Y012911D01*
X010115Y012911D01*
X010177Y012973D01*
X010177Y013096D01*
X009809Y013096D02*
X009747Y013158D01*
X009624Y013158D01*
X009562Y013096D01*
X009562Y013034D01*
X009809Y013034D01*
X009809Y012973D02*
X009809Y013096D01*
X009809Y012973D02*
X009747Y012911D01*
X009624Y012911D01*
X009441Y012911D02*
X009441Y013158D01*
X009441Y013034D02*
X009317Y013158D01*
X009255Y013158D01*
X008765Y013096D02*
X008765Y012973D01*
X008704Y012911D01*
X008580Y012911D01*
X008518Y012973D01*
X008518Y013096D01*
X008580Y013158D01*
X008704Y013158D01*
X008765Y013096D01*
X008397Y013158D02*
X008397Y012911D01*
X008397Y013158D02*
X008212Y013158D01*
X008150Y013096D01*
X008150Y012911D01*
X007660Y013096D02*
X007537Y013096D01*
X007415Y013034D02*
X007291Y013158D01*
X007230Y013158D01*
X007108Y013096D02*
X007108Y012973D01*
X007046Y012911D01*
X006923Y012911D01*
X006861Y012973D01*
X006861Y013096D01*
X006923Y013158D01*
X007046Y013158D01*
X007108Y013096D01*
X007415Y013158D02*
X007415Y012911D01*
X007599Y012911D02*
X007599Y013219D01*
X007537Y013281D01*
X006740Y013158D02*
X006740Y012911D01*
X006740Y013158D02*
X006555Y013158D01*
X006493Y013096D01*
X006493Y012911D01*
X006310Y012973D02*
X006248Y012911D01*
X006310Y012973D02*
X006310Y013219D01*
X006371Y013158D02*
X006248Y013158D01*
X010249Y013891D02*
X010434Y014014D01*
X010249Y014138D01*
X010434Y014261D02*
X010434Y013891D01*
X010556Y013891D02*
X010741Y013891D01*
X010802Y013953D01*
X010802Y014076D01*
X010741Y014138D01*
X010556Y014138D01*
X010924Y014076D02*
X010924Y013891D01*
X011109Y013891D01*
X011171Y013953D01*
X011109Y014014D01*
X010924Y014014D01*
X010924Y014076D02*
X010986Y014138D01*
X011109Y014138D01*
X011292Y014076D02*
X011292Y013953D01*
X011354Y013891D01*
X011539Y013891D01*
X011539Y014261D01*
X011539Y014138D02*
X011354Y014138D01*
X011292Y014076D01*
X012029Y014138D02*
X012153Y014138D01*
X012091Y014199D02*
X012091Y013953D01*
X012029Y013891D01*
X012274Y013891D02*
X012274Y014076D01*
X012336Y014138D01*
X012459Y014138D01*
X012459Y014014D02*
X012274Y014014D01*
X012274Y013891D02*
X012459Y013891D01*
X012521Y013953D01*
X012459Y014014D01*
X013011Y014138D02*
X013073Y014138D01*
X013196Y014014D01*
X013318Y014014D02*
X013565Y014014D01*
X013565Y013953D02*
X013565Y014076D01*
X013503Y014138D01*
X013380Y014138D01*
X013318Y014076D01*
X013318Y014014D01*
X013380Y013891D02*
X013503Y013891D01*
X013565Y013953D01*
X013686Y013891D02*
X013871Y013891D01*
X013933Y013953D01*
X013933Y014076D01*
X013871Y014138D01*
X013686Y014138D01*
X013686Y014261D02*
X013686Y013891D01*
X014055Y013891D02*
X014179Y013891D01*
X014117Y013891D02*
X014117Y014261D01*
X014179Y014261D01*
X014362Y014138D02*
X014485Y014138D01*
X014547Y014076D01*
X014547Y013953D01*
X014485Y013891D01*
X014362Y013891D01*
X014300Y013953D01*
X014300Y014076D01*
X014362Y014138D01*
X014668Y014199D02*
X014730Y014261D01*
X014853Y014261D01*
X014915Y014199D01*
X014915Y014138D01*
X014853Y014076D01*
X014730Y014076D01*
X014668Y014014D01*
X014668Y013953D01*
X014730Y013891D01*
X014853Y013891D01*
X014915Y013953D01*
X015406Y013953D02*
X015406Y013891D01*
X015468Y013891D01*
X015468Y013953D01*
X015406Y013953D01*
X015590Y013891D02*
X015651Y013953D01*
X015651Y014199D01*
X015713Y014138D02*
X015590Y014138D01*
X015835Y014076D02*
X015835Y013891D01*
X015835Y014076D02*
X015896Y014138D01*
X016081Y014138D01*
X016081Y013891D01*
X015947Y013158D02*
X015823Y013158D01*
X015762Y013096D01*
X015762Y012973D01*
X015823Y012911D01*
X015947Y012911D01*
X016009Y012973D01*
X016009Y013096D01*
X015947Y013158D01*
X015640Y013158D02*
X015640Y012911D01*
X015393Y012911D02*
X015393Y013096D01*
X015455Y013158D01*
X015640Y013158D01*
X014327Y012078D02*
X014327Y011831D01*
X014327Y012078D02*
X014142Y012078D01*
X014080Y012016D01*
X014080Y011831D01*
X013958Y011893D02*
X013897Y011831D01*
X013712Y011831D01*
X013712Y011769D02*
X013712Y012078D01*
X013897Y012078D01*
X013958Y012016D01*
X013958Y011893D01*
X013835Y011707D02*
X013773Y011707D01*
X013712Y011769D01*
X013590Y011831D02*
X013528Y011831D01*
X013528Y011893D01*
X013590Y011893D01*
X013590Y011831D01*
X013406Y011831D02*
X013344Y011831D01*
X013344Y011893D01*
X013406Y011893D01*
X013406Y011831D01*
X013222Y011831D02*
X013160Y011831D01*
X013160Y011893D01*
X013222Y011893D01*
X013222Y011831D01*
X012978Y011513D02*
X012978Y011451D01*
X012978Y011328D02*
X012978Y011081D01*
X013040Y011081D02*
X012916Y011081D01*
X012794Y011081D02*
X012609Y011081D01*
X012547Y011143D01*
X012609Y011204D01*
X012733Y011204D01*
X012794Y011266D01*
X012733Y011328D01*
X012547Y011328D01*
X012978Y011328D02*
X013040Y011328D01*
X013530Y011328D02*
X013715Y011328D01*
X013776Y011266D01*
X013776Y011143D01*
X013715Y011081D01*
X013530Y011081D01*
X013530Y011451D01*
X013898Y011266D02*
X013898Y011081D01*
X014083Y011081D01*
X014145Y011143D01*
X014083Y011204D01*
X013898Y011204D01*
X013898Y011266D02*
X013960Y011328D01*
X014083Y011328D01*
X014266Y011266D02*
X014266Y011204D01*
X014513Y011204D01*
X014513Y011143D02*
X014513Y011266D01*
X014451Y011328D01*
X014328Y011328D01*
X014266Y011266D01*
X014328Y011081D02*
X014451Y011081D01*
X014513Y011143D01*
X014635Y011081D02*
X014759Y011081D01*
X014697Y011081D02*
X014697Y011451D01*
X014759Y011451D01*
X014881Y011143D02*
X014881Y011081D01*
X014943Y011081D01*
X014943Y011143D01*
X014881Y011143D01*
X015065Y011143D02*
X015065Y011081D01*
X015127Y011081D01*
X015127Y011143D01*
X015065Y011143D01*
X015249Y011143D02*
X015249Y011081D01*
X015311Y011081D01*
X015311Y011143D01*
X015249Y011143D01*
X014773Y010283D02*
X014773Y010221D01*
X012058Y011204D02*
X012058Y011328D01*
X011934Y011451D01*
X011812Y011266D02*
X011565Y011266D01*
X011689Y011389D02*
X011689Y011143D01*
X011444Y011081D02*
X011320Y011204D01*
X011320Y011328D01*
X011444Y011451D01*
X011934Y011081D02*
X012058Y011204D01*
X012632Y013096D02*
X012571Y013158D01*
X013196Y013891D02*
X013196Y014138D01*
D12*
X019535Y017166D02*
X020149Y017166D01*
X019842Y017473D02*
X019842Y016859D01*
X012649Y022916D02*
X012035Y022916D01*
X012342Y023223D02*
X012342Y022609D01*
X016592Y007723D02*
X016592Y007109D01*
X016285Y007416D02*
X016899Y007416D01*
D13*
X014071Y017276D03*
X014071Y017286D03*
X014071Y017296D03*
X014071Y017306D03*
X014071Y017316D03*
X014071Y017326D03*
X014071Y017336D03*
X014071Y017346D03*
X014071Y017356D03*
X014071Y017366D03*
X014071Y017376D03*
X014071Y017386D03*
X014071Y017396D03*
X014071Y017496D03*
X014071Y017506D03*
X014071Y017516D03*
X014071Y017526D03*
X014071Y017536D03*
X014071Y017546D03*
X014071Y017556D03*
X013731Y017506D03*
X013731Y017496D03*
X013731Y017426D03*
X013731Y017416D03*
X013601Y017266D03*
X013471Y017516D03*
X013231Y017516D03*
X013231Y017526D03*
X013231Y017536D03*
X013231Y017546D03*
X013231Y017556D03*
X013231Y017566D03*
X013231Y017576D03*
X013231Y017586D03*
X013231Y017596D03*
X013231Y017606D03*
X013231Y017616D03*
X013231Y017626D03*
X013231Y017636D03*
X013231Y017646D03*
X013231Y017506D03*
X013231Y017496D03*
X013231Y017486D03*
X013231Y017476D03*
X013231Y017466D03*
X013231Y017456D03*
X013231Y017446D03*
X013231Y017436D03*
X013231Y017426D03*
X013231Y017416D03*
X013231Y017406D03*
X013231Y017396D03*
X013231Y017386D03*
X013121Y017266D03*
X013021Y017376D03*
X012791Y017376D03*
X012791Y017386D03*
X012791Y017396D03*
X012791Y017406D03*
X012791Y017416D03*
X012791Y017426D03*
X012791Y017436D03*
X012791Y017446D03*
X012791Y017456D03*
X012791Y017466D03*
X012791Y017366D03*
X012791Y017356D03*
X012791Y017346D03*
X012791Y017336D03*
X012791Y017326D03*
X012791Y017316D03*
X012791Y017306D03*
X012791Y017296D03*
X012791Y017286D03*
X012791Y017276D03*
X012551Y017276D03*
X012551Y017456D03*
X012551Y017466D03*
X012551Y017476D03*
X012551Y017486D03*
X012551Y017496D03*
X012551Y017506D03*
X012551Y017516D03*
X012551Y017526D03*
X012551Y017536D03*
X012551Y017546D03*
X012551Y017556D03*
X012551Y017566D03*
X012551Y017576D03*
X012551Y017586D03*
X012551Y017596D03*
X012551Y017606D03*
X012551Y017616D03*
X012551Y017626D03*
X012551Y017636D03*
X012551Y017646D03*
X012881Y017916D03*
X012891Y017946D03*
X012901Y017976D03*
X012931Y018066D03*
X012941Y018086D03*
X012941Y018096D03*
X012951Y018116D03*
X012951Y018126D03*
X012961Y018146D03*
X013071Y018126D03*
X013081Y018096D03*
X013091Y018076D03*
X013091Y018066D03*
X013121Y017976D03*
X013131Y017956D03*
X013141Y017926D03*
X013011Y017646D03*
X013531Y017916D03*
X013531Y017926D03*
X013531Y017936D03*
X013011Y018286D03*
X012211Y018196D03*
X012211Y018186D03*
X012211Y018176D03*
X012211Y018166D03*
X012211Y018156D03*
X012211Y018056D03*
X012211Y018046D03*
X012211Y018036D03*
X012211Y018026D03*
X012211Y018016D03*
X012211Y018006D03*
X012081Y017506D03*
X012081Y017416D03*
X012081Y017406D03*
X011891Y017336D03*
X011891Y017326D03*
X011901Y017306D03*
X011911Y017276D03*
X011861Y017416D03*
X011861Y017426D03*
X011851Y017446D03*
X011841Y017476D03*
X011721Y017476D03*
X011721Y017486D03*
X011721Y017496D03*
X011711Y017466D03*
X011711Y017456D03*
X011711Y017446D03*
X011701Y017436D03*
X011701Y017426D03*
X011671Y017336D03*
X011661Y017316D03*
X011661Y017306D03*
X011651Y017286D03*
X011651Y017276D03*
X011781Y017646D03*
X011591Y018156D03*
X011591Y018166D03*
X011591Y018176D03*
X011061Y017646D03*
X011061Y017636D03*
X011061Y017626D03*
X011061Y017616D03*
X011061Y017606D03*
X011061Y017596D03*
X011061Y017586D03*
X011061Y017576D03*
X011061Y017566D03*
X011061Y017556D03*
X011061Y017546D03*
X011061Y017536D03*
X011061Y017526D03*
X011061Y017516D03*
X011061Y017506D03*
X011061Y017496D03*
X011061Y017486D03*
X011061Y017476D03*
X011061Y017466D03*
X011061Y017456D03*
X011061Y017446D03*
X011061Y017436D03*
X011061Y017426D03*
X011061Y017416D03*
X011061Y017406D03*
X011061Y017396D03*
X011061Y017386D03*
X011061Y017376D03*
X011061Y017366D03*
X011061Y017356D03*
X011061Y017346D03*
X011061Y017336D03*
X011061Y017326D03*
X011061Y017316D03*
X011061Y017306D03*
X011061Y017296D03*
X011061Y017286D03*
X011061Y017276D03*
X010821Y017396D03*
X010831Y017436D03*
X010831Y017446D03*
X010831Y017456D03*
X010831Y017466D03*
X010831Y017476D03*
X010831Y017486D03*
X010691Y017266D03*
X010561Y017426D03*
X010561Y017436D03*
X010561Y017446D03*
X010561Y017456D03*
X010561Y017466D03*
X010561Y017476D03*
X010561Y017486D03*
X010561Y017496D03*
X010341Y017646D03*
X010101Y017646D03*
X010101Y017636D03*
X010101Y017626D03*
X010101Y017616D03*
X010101Y017606D03*
X010101Y017596D03*
X010101Y017586D03*
X010101Y017576D03*
X010101Y017566D03*
X010101Y017556D03*
X010101Y017546D03*
X010101Y017536D03*
X010101Y017526D03*
X010101Y017516D03*
X010101Y017506D03*
X010101Y017496D03*
X010101Y017486D03*
X010101Y017476D03*
X010101Y017466D03*
X010101Y017456D03*
X010101Y017446D03*
X010341Y017916D03*
X010341Y017926D03*
X010341Y017936D03*
X010341Y017946D03*
X010341Y017956D03*
X010341Y017966D03*
X010341Y017976D03*
X010341Y017986D03*
X010341Y017996D03*
X010341Y018006D03*
X010341Y018016D03*
X010341Y018026D03*
X010341Y018036D03*
X010341Y018046D03*
X010341Y018136D03*
X010341Y018146D03*
X010341Y018156D03*
X010341Y018166D03*
X010341Y018176D03*
X010341Y018186D03*
X010341Y018196D03*
X009951Y018196D03*
X009951Y018186D03*
X009951Y018176D03*
X009951Y018166D03*
X009951Y018156D03*
X009951Y018056D03*
X009951Y018046D03*
X009951Y018036D03*
X009951Y018026D03*
X009951Y018016D03*
X009951Y018006D03*
X009951Y017996D03*
X009561Y018046D03*
X009561Y018056D03*
X009561Y018146D03*
X009561Y018156D03*
X009331Y018176D03*
X009021Y018176D03*
X009021Y018186D03*
X009021Y018196D03*
X009021Y018166D03*
X009021Y018156D03*
X009021Y018146D03*
X009021Y018136D03*
X009021Y018126D03*
X009021Y018116D03*
X009021Y018106D03*
X009021Y018096D03*
X009021Y018086D03*
X009021Y018076D03*
X009021Y018066D03*
X009021Y018056D03*
X009021Y018046D03*
X009021Y018036D03*
X009021Y018026D03*
X009021Y018016D03*
X009021Y018006D03*
X009021Y017996D03*
X009021Y017986D03*
X009021Y017976D03*
X009021Y017966D03*
X009021Y017956D03*
X009021Y017946D03*
X009021Y017936D03*
X009021Y017926D03*
X009021Y017916D03*
X010721Y017926D03*
X010721Y017936D03*
X010721Y017946D03*
X010721Y017956D03*
X010721Y017966D03*
X010721Y017976D03*
X010721Y017986D03*
X010721Y017996D03*
X010721Y018006D03*
X010721Y018016D03*
X010721Y018026D03*
X010721Y018036D03*
X010721Y018046D03*
X010721Y018136D03*
X010721Y018146D03*
X010721Y018156D03*
X010721Y018166D03*
X010721Y018176D03*
X010721Y018186D03*
X010721Y018196D03*
X010721Y017916D03*
X014571Y017926D03*
X014571Y017936D03*
X014571Y017946D03*
X014571Y017956D03*
X014571Y017966D03*
X014571Y017976D03*
X014571Y017986D03*
X014571Y017996D03*
X014571Y018006D03*
X014571Y018016D03*
X014571Y018026D03*
X014571Y018036D03*
X014571Y018046D03*
X014571Y018056D03*
X014571Y018156D03*
X014571Y018166D03*
X014571Y018176D03*
X014571Y018186D03*
X014571Y018196D03*
X014571Y018206D03*
X014571Y018216D03*
X014571Y018226D03*
X014571Y018236D03*
X014571Y018246D03*
X014571Y018256D03*
X014571Y018266D03*
X014571Y018276D03*
X014571Y018286D03*
X014801Y018286D03*
X014801Y018276D03*
X014801Y018266D03*
X014801Y018256D03*
X014801Y018246D03*
X014801Y018236D03*
X014801Y018226D03*
X014801Y018216D03*
X014801Y018206D03*
X014801Y018196D03*
X014801Y018186D03*
X014801Y018176D03*
X014801Y018166D03*
X014801Y018156D03*
X014801Y018056D03*
X014801Y018046D03*
X014801Y018036D03*
X014801Y018026D03*
X014801Y018016D03*
X014801Y018006D03*
X014801Y017996D03*
X014801Y017986D03*
X014801Y017976D03*
X014801Y017966D03*
X014801Y017956D03*
X014801Y017946D03*
X014801Y017936D03*
X014801Y017926D03*
X014801Y017916D03*
X014571Y017916D03*
X015141Y017916D03*
X015141Y017926D03*
X015141Y017936D03*
X015141Y017946D03*
X015141Y017956D03*
X015141Y017966D03*
X015141Y017976D03*
X015141Y017986D03*
X015141Y017996D03*
X015141Y018006D03*
X015141Y018016D03*
X015141Y018026D03*
X015141Y018036D03*
X015141Y018046D03*
X015141Y018056D03*
X015141Y018066D03*
X015141Y018076D03*
X015141Y018086D03*
X015141Y018096D03*
X015141Y018106D03*
X015141Y018116D03*
X015141Y018126D03*
X015141Y018136D03*
X015141Y018146D03*
X015141Y018156D03*
X015141Y018166D03*
X015141Y018176D03*
X015141Y018186D03*
X015141Y018196D03*
X016411Y020076D03*
X016421Y020126D03*
X015831Y020436D03*
X015821Y020516D03*
X015821Y020526D03*
X015821Y020606D03*
X015821Y020616D03*
X015821Y020816D03*
X015811Y020826D03*
X015801Y020836D03*
X015791Y020846D03*
X015781Y020856D03*
X015771Y020866D03*
X015761Y020876D03*
X015751Y020886D03*
X015741Y020896D03*
X015731Y020906D03*
X015721Y020916D03*
X015771Y021066D03*
X015771Y021086D03*
X015771Y021096D03*
X015771Y021106D03*
X015771Y021116D03*
X015771Y021126D03*
X015771Y021136D03*
X015771Y021146D03*
X015761Y021166D03*
X015981Y021116D03*
X015981Y021106D03*
X015991Y021146D03*
X015991Y021156D03*
X015991Y021166D03*
X015991Y021216D03*
X015991Y021226D03*
X015991Y021236D03*
X015991Y021246D03*
X015991Y021256D03*
X015981Y021276D03*
X016161Y021326D03*
X016161Y021336D03*
X016161Y021346D03*
X016151Y021366D03*
X016171Y021316D03*
X016171Y021306D03*
X016171Y021296D03*
X016171Y021286D03*
X016171Y021276D03*
X016171Y021266D03*
X016171Y021206D03*
X016171Y021196D03*
X016171Y021186D03*
X016171Y021176D03*
X016171Y021166D03*
X016161Y021156D03*
X016161Y021146D03*
X016151Y021116D03*
X016151Y021106D03*
X015991Y020846D03*
X015491Y021066D03*
X015481Y021086D03*
X015481Y021096D03*
X015481Y021106D03*
X015481Y021116D03*
X015481Y021126D03*
X015481Y021136D03*
X015481Y021146D03*
X015491Y021166D03*
X015251Y021146D03*
X015251Y021136D03*
X015251Y021126D03*
X015251Y021116D03*
X015251Y021106D03*
X015251Y021096D03*
X015251Y021056D03*
X015251Y021046D03*
X015251Y021036D03*
X015251Y021026D03*
X015251Y021016D03*
X015261Y021006D03*
X015261Y020996D03*
X015081Y020936D03*
X015081Y020926D03*
X015091Y020906D03*
X015091Y020896D03*
X015101Y020876D03*
X015071Y020956D03*
X015071Y020966D03*
X015071Y020976D03*
X015071Y020986D03*
X015061Y021006D03*
X015061Y021016D03*
X015061Y021026D03*
X015061Y021036D03*
X015061Y021046D03*
X015061Y021056D03*
X015061Y021066D03*
X015061Y021076D03*
X015071Y021096D03*
X015071Y021106D03*
X015071Y021116D03*
X015071Y021126D03*
X017441Y020086D03*
X017441Y020076D03*
X017551Y019146D03*
X017161Y018326D03*
X018011Y018056D03*
X018871Y018216D03*
D14*
X018881Y018276D03*
X018811Y017856D03*
X018191Y017676D03*
X017991Y018096D03*
X017981Y018106D03*
X017321Y018346D03*
X017311Y018356D03*
X017371Y018586D03*
X017361Y018596D03*
X017301Y018646D03*
X017291Y018656D03*
X017281Y018666D03*
X017231Y018706D03*
X017221Y018716D03*
X017211Y018726D03*
X017201Y018736D03*
X017191Y018746D03*
X017181Y018756D03*
X017171Y018766D03*
X017161Y018776D03*
X017141Y018786D03*
X017131Y018796D03*
X017121Y018806D03*
X017111Y018816D03*
X017101Y018826D03*
X017091Y018836D03*
X017081Y018846D03*
X017071Y018856D03*
X017061Y018866D03*
X017051Y018876D03*
X017041Y018886D03*
X017031Y018896D03*
X017591Y019076D03*
X017051Y019566D03*
X017041Y019556D03*
X017031Y019546D03*
X017021Y019536D03*
X017011Y019526D03*
X016941Y019906D03*
X016941Y019916D03*
X016951Y019936D03*
X016951Y019946D03*
X016951Y019956D03*
X016961Y019976D03*
X016961Y019986D03*
X016961Y019996D03*
X016961Y020006D03*
X016951Y020116D03*
X016471Y020166D03*
X016241Y020366D03*
X016231Y020356D03*
X016221Y020346D03*
X016211Y020336D03*
X016201Y020326D03*
X015851Y020246D03*
X016021Y019876D03*
X016021Y019866D03*
X016481Y019196D03*
X015261Y020686D03*
X015381Y020836D03*
X015861Y021436D03*
X016001Y021576D03*
X015991Y021586D03*
X019211Y019186D03*
X013651Y018216D03*
X013651Y018206D03*
X013651Y018196D03*
X013651Y018186D03*
X013531Y018036D03*
X013531Y018026D03*
X013401Y018216D03*
X013401Y018226D03*
X013401Y018236D03*
X013401Y018246D03*
X013401Y018256D03*
X013011Y018216D03*
X013011Y018206D03*
X013011Y018196D03*
X012761Y017566D03*
X012581Y017366D03*
X012581Y017356D03*
X011781Y017566D03*
X010691Y017276D03*
X010311Y017556D03*
X010311Y017566D03*
X010131Y017356D03*
X009441Y018286D03*
X013601Y017276D03*
D15*
X013126Y017276D03*
X012756Y017546D03*
X012756Y017556D03*
X012586Y017376D03*
X011776Y017546D03*
X011776Y017556D03*
X010306Y017546D03*
X010136Y017366D03*
X013406Y018176D03*
X013406Y018186D03*
X013406Y018196D03*
X013406Y018206D03*
X013646Y018176D03*
X013646Y018166D03*
X013646Y018156D03*
X015276Y020676D03*
X016126Y020266D03*
X016156Y020286D03*
X016166Y020296D03*
X016176Y020306D03*
X016186Y020316D03*
X016946Y019476D03*
X016936Y019466D03*
X016926Y019456D03*
X016966Y019486D03*
X016976Y019496D03*
X016986Y019506D03*
X016996Y019516D03*
X016706Y019296D03*
X016496Y019176D03*
X016496Y019166D03*
X016486Y019186D03*
X017246Y018696D03*
X017256Y018686D03*
X017266Y018676D03*
X017316Y018636D03*
X017326Y018626D03*
X017336Y018616D03*
X017346Y018606D03*
X017386Y018576D03*
X017396Y018566D03*
X017406Y018556D03*
X017416Y018546D03*
X017436Y018536D03*
X017446Y018526D03*
X017456Y018516D03*
X017466Y018506D03*
X017476Y018496D03*
X017496Y018486D03*
X017506Y018476D03*
X017516Y018466D03*
X017526Y018456D03*
X017546Y018446D03*
X017556Y018436D03*
X017566Y018426D03*
X017606Y018396D03*
X017616Y018386D03*
X017656Y018356D03*
X017696Y018326D03*
X017706Y018316D03*
X017746Y018286D03*
X017786Y018256D03*
X017826Y018226D03*
X017866Y018196D03*
X017496Y018206D03*
X017456Y018236D03*
X017446Y018246D03*
X017416Y018266D03*
X017406Y018276D03*
X017396Y018286D03*
X017386Y018296D03*
X017366Y018306D03*
X017356Y018316D03*
X017346Y018326D03*
X017336Y018336D03*
X017346Y017766D03*
X017356Y017756D03*
X017716Y017476D03*
X017756Y017446D03*
X017766Y017436D03*
X017806Y017406D03*
X017816Y017396D03*
X017846Y017376D03*
X017856Y017366D03*
X017896Y017336D03*
X017906Y017326D03*
X017936Y017306D03*
X017946Y017296D03*
X017986Y017266D03*
X017996Y017256D03*
X018106Y017166D03*
X017596Y019066D03*
X018276Y019556D03*
X019206Y019196D03*
X015976Y021596D03*
X015956Y021606D03*
X015846Y021446D03*
D16*
X015566Y021016D03*
X015636Y020946D03*
X015426Y020816D03*
X015326Y020646D03*
X016026Y019816D03*
X016506Y020196D03*
X016766Y019346D03*
X016746Y019336D03*
X016736Y019326D03*
X016526Y019116D03*
X016526Y019106D03*
X017626Y019016D03*
X017896Y017926D03*
X017926Y017906D03*
X017946Y017896D03*
X017966Y017886D03*
X018216Y017706D03*
X018756Y017886D03*
X018886Y018316D03*
X018886Y018326D03*
X018956Y018666D03*
X019196Y019236D03*
X018106Y017186D03*
X014016Y017486D03*
X012736Y017486D03*
X012606Y017436D03*
X012606Y017426D03*
X012256Y017276D03*
X012626Y018136D03*
X012626Y018146D03*
X010286Y018126D03*
X010286Y018116D03*
X010286Y018106D03*
X010286Y018096D03*
X010286Y018086D03*
X010286Y018076D03*
X010286Y018066D03*
X010286Y018056D03*
X010286Y017486D03*
X010286Y017476D03*
X010156Y017426D03*
D17*
X010216Y017446D03*
X010106Y017286D03*
X010106Y017276D03*
X010336Y017636D03*
X010566Y017526D03*
X010566Y017516D03*
X010566Y017506D03*
X010576Y017536D03*
X010566Y017416D03*
X010566Y017406D03*
X010566Y017396D03*
X010576Y017386D03*
X010576Y017376D03*
X010806Y017366D03*
X010816Y017376D03*
X010816Y017386D03*
X010826Y017406D03*
X010826Y017416D03*
X010826Y017426D03*
X010826Y017496D03*
X010826Y017506D03*
X010826Y017516D03*
X010816Y017526D03*
X010816Y017536D03*
X011146Y017996D03*
X011146Y018006D03*
X011146Y018016D03*
X011146Y018026D03*
X011146Y018036D03*
X011146Y018046D03*
X011146Y018056D03*
X011146Y018156D03*
X011146Y018166D03*
X011146Y018176D03*
X011146Y018186D03*
X011146Y018196D03*
X011596Y018196D03*
X011596Y018186D03*
X011596Y018146D03*
X011596Y018136D03*
X011656Y018036D03*
X011656Y018026D03*
X011646Y018016D03*
X011646Y018006D03*
X011636Y017996D03*
X011636Y017986D03*
X011626Y017976D03*
X011616Y017956D03*
X011606Y017946D03*
X011606Y017936D03*
X011596Y017926D03*
X011596Y017916D03*
X011796Y017916D03*
X011796Y017926D03*
X011796Y017936D03*
X011796Y017946D03*
X011796Y017956D03*
X011796Y017966D03*
X011796Y017976D03*
X011796Y017986D03*
X011796Y017996D03*
X011796Y018006D03*
X011796Y018016D03*
X011796Y018026D03*
X011796Y018036D03*
X011796Y018126D03*
X011796Y018136D03*
X011796Y018146D03*
X011796Y018156D03*
X011796Y018166D03*
X011796Y018176D03*
X011796Y018186D03*
X011796Y018196D03*
X011796Y018206D03*
X012206Y017996D03*
X012466Y017946D03*
X012496Y017996D03*
X012506Y018016D03*
X012526Y018046D03*
X012556Y018166D03*
X012546Y018186D03*
X012536Y018196D03*
X012526Y018206D03*
X012486Y018256D03*
X012676Y018256D03*
X012676Y018266D03*
X012676Y018276D03*
X012676Y018286D03*
X012676Y018246D03*
X012676Y018236D03*
X012676Y018226D03*
X012676Y018216D03*
X012676Y018206D03*
X012676Y018196D03*
X012676Y018186D03*
X012676Y018176D03*
X012676Y018166D03*
X012676Y018026D03*
X012676Y018016D03*
X012676Y018006D03*
X012676Y017996D03*
X012676Y017986D03*
X012676Y017976D03*
X012676Y017966D03*
X012676Y017956D03*
X012676Y017946D03*
X012676Y017936D03*
X012676Y017926D03*
X012676Y017916D03*
X012886Y017926D03*
X012886Y017936D03*
X012896Y017956D03*
X012896Y017966D03*
X012936Y018076D03*
X012946Y018106D03*
X012956Y018136D03*
X013006Y018276D03*
X013376Y018086D03*
X013376Y018076D03*
X013376Y018066D03*
X013376Y018056D03*
X013376Y018046D03*
X013376Y018036D03*
X013376Y018026D03*
X013376Y018016D03*
X013376Y018006D03*
X013376Y017996D03*
X013376Y017986D03*
X013376Y017976D03*
X013376Y017966D03*
X013376Y017956D03*
X013376Y017946D03*
X013376Y017936D03*
X013376Y017926D03*
X013376Y017916D03*
X013536Y017946D03*
X013476Y017536D03*
X013476Y017526D03*
X013466Y017506D03*
X013466Y017496D03*
X013466Y017486D03*
X013466Y017476D03*
X013466Y017466D03*
X013466Y017456D03*
X013466Y017446D03*
X013466Y017436D03*
X013466Y017426D03*
X013466Y017416D03*
X013466Y017406D03*
X013476Y017396D03*
X013476Y017386D03*
X013486Y017366D03*
X013716Y017376D03*
X013726Y017386D03*
X013726Y017396D03*
X013726Y017406D03*
X013736Y017436D03*
X013736Y017446D03*
X013736Y017456D03*
X013736Y017466D03*
X013736Y017476D03*
X013736Y017486D03*
X013726Y017516D03*
X013726Y017526D03*
X013716Y017536D03*
X013716Y017546D03*
X014066Y017406D03*
X014326Y017996D03*
X014326Y018006D03*
X014326Y018016D03*
X014326Y018026D03*
X014326Y018036D03*
X014326Y018046D03*
X014326Y018056D03*
X014326Y018146D03*
X014326Y018156D03*
X014326Y018166D03*
X014326Y018176D03*
X014326Y018186D03*
X014326Y018196D03*
X013226Y017376D03*
X013226Y017366D03*
X013026Y017366D03*
X013016Y017386D03*
X013016Y017396D03*
X013016Y017406D03*
X013016Y017416D03*
X013016Y017426D03*
X013016Y017436D03*
X013016Y017446D03*
X013016Y017456D03*
X013016Y017466D03*
X013016Y017476D03*
X013016Y017486D03*
X013016Y017496D03*
X013016Y017506D03*
X013016Y017516D03*
X013016Y017526D03*
X013016Y017536D03*
X013016Y017546D03*
X013016Y017556D03*
X013016Y017566D03*
X013016Y017576D03*
X013016Y017586D03*
X013016Y017596D03*
X013016Y017606D03*
X013016Y017616D03*
X013016Y017626D03*
X013016Y017636D03*
X012786Y017636D03*
X012786Y017646D03*
X012676Y017466D03*
X012556Y017286D03*
X012306Y017356D03*
X012306Y017366D03*
X012306Y017376D03*
X012306Y017386D03*
X012306Y017396D03*
X012306Y017406D03*
X012306Y017416D03*
X012306Y017426D03*
X012306Y017436D03*
X012306Y017446D03*
X012306Y017456D03*
X012306Y017466D03*
X012306Y017476D03*
X012306Y017486D03*
X012306Y017496D03*
X012306Y017506D03*
X012306Y017516D03*
X012306Y017526D03*
X012306Y017536D03*
X012306Y017546D03*
X012306Y017556D03*
X012086Y017526D03*
X012086Y017516D03*
X012076Y017496D03*
X012076Y017486D03*
X012076Y017476D03*
X012076Y017466D03*
X012076Y017456D03*
X012076Y017446D03*
X012076Y017436D03*
X012076Y017426D03*
X012086Y017396D03*
X012086Y017386D03*
X012096Y017376D03*
X011696Y017416D03*
X011666Y017326D03*
X011656Y017296D03*
X011406Y017296D03*
X011406Y017306D03*
X011406Y017316D03*
X011406Y017326D03*
X011406Y017336D03*
X011406Y017346D03*
X011406Y017356D03*
X011406Y017366D03*
X011406Y017376D03*
X011406Y017386D03*
X011406Y017396D03*
X011406Y017406D03*
X011406Y017416D03*
X011406Y017426D03*
X011406Y017436D03*
X011406Y017446D03*
X011406Y017456D03*
X011406Y017466D03*
X011406Y017476D03*
X011406Y017486D03*
X011406Y017496D03*
X011406Y017506D03*
X011406Y017516D03*
X011406Y017526D03*
X011406Y017536D03*
X011406Y017546D03*
X011406Y017556D03*
X011406Y017286D03*
X011406Y017276D03*
X011776Y017626D03*
X011776Y017636D03*
X009566Y018066D03*
X009566Y018076D03*
X009566Y018086D03*
X009566Y018096D03*
X009566Y018106D03*
X009566Y018116D03*
X009566Y018126D03*
X009566Y018136D03*
X009556Y018166D03*
X009556Y018176D03*
X009556Y018036D03*
X009556Y018026D03*
X009336Y018016D03*
X009336Y018006D03*
X009326Y018026D03*
X009326Y018036D03*
X009336Y018186D03*
X015096Y020886D03*
X015106Y020866D03*
X015116Y020856D03*
X015116Y020846D03*
X015126Y020826D03*
X015136Y020816D03*
X015086Y020916D03*
X015076Y020946D03*
X015266Y020976D03*
X015266Y020986D03*
X015276Y020966D03*
X015276Y020956D03*
X015286Y020946D03*
X015286Y020936D03*
X015296Y020926D03*
X015496Y021056D03*
X015486Y021076D03*
X015486Y021156D03*
X015496Y021176D03*
X015756Y021176D03*
X015766Y021156D03*
X015766Y021076D03*
X015986Y021126D03*
X015986Y021136D03*
X015986Y021266D03*
X015976Y021286D03*
X015976Y021296D03*
X015966Y021306D03*
X015966Y021316D03*
X015956Y021326D03*
X015956Y021336D03*
X015946Y021346D03*
X016116Y021436D03*
X016116Y021446D03*
X016106Y021456D03*
X016126Y021426D03*
X016126Y021416D03*
X016136Y021406D03*
X016136Y021396D03*
X016146Y021386D03*
X016146Y021376D03*
X016156Y021356D03*
X016156Y021136D03*
X016156Y021126D03*
X015826Y020806D03*
X015836Y020796D03*
X015846Y020786D03*
X015856Y020776D03*
X015846Y020726D03*
X015836Y020706D03*
X015836Y020696D03*
X015836Y020686D03*
X015826Y020676D03*
X015826Y020666D03*
X015826Y020656D03*
X015826Y020646D03*
X015826Y020636D03*
X015826Y020626D03*
X015816Y020596D03*
X015816Y020586D03*
X015816Y020576D03*
X015816Y020566D03*
X015816Y020556D03*
X015816Y020546D03*
X015816Y020536D03*
X015826Y020506D03*
X015826Y020496D03*
X015826Y020486D03*
X015826Y020476D03*
X015826Y020466D03*
X015826Y020456D03*
X015826Y020446D03*
X015836Y020426D03*
X015836Y020416D03*
X015836Y020406D03*
X015836Y020396D03*
X015836Y020386D03*
X015846Y020376D03*
X015846Y020366D03*
X015846Y020356D03*
X015846Y020346D03*
X015856Y020336D03*
X015856Y020326D03*
X015856Y020316D03*
X015856Y020306D03*
X016416Y020066D03*
X016436Y020136D03*
X016586Y020066D03*
X016776Y020106D03*
X016736Y019936D03*
X017436Y020056D03*
X017436Y020066D03*
X017556Y019136D03*
X017166Y018356D03*
X017166Y018346D03*
X017166Y018336D03*
X018006Y018066D03*
X018166Y017646D03*
X018166Y017636D03*
X018166Y017626D03*
X018166Y017616D03*
X018166Y017606D03*
X018166Y017596D03*
X018166Y017586D03*
X018166Y017576D03*
X018166Y017566D03*
X018166Y017556D03*
X018166Y017546D03*
X018166Y017536D03*
X018166Y017526D03*
X018166Y017516D03*
X018166Y017506D03*
X018166Y017496D03*
X018166Y017486D03*
X018166Y017476D03*
X018166Y017466D03*
X018166Y017456D03*
X018166Y017446D03*
X018166Y017436D03*
X018166Y017426D03*
X018166Y017416D03*
X018166Y017406D03*
X018166Y017396D03*
X018166Y017386D03*
X018166Y017376D03*
X018166Y017366D03*
X018166Y017356D03*
X018166Y017346D03*
X018166Y017336D03*
X018166Y017326D03*
X018166Y017316D03*
X018166Y017306D03*
X018166Y017296D03*
X018166Y017286D03*
X018166Y017276D03*
X018166Y017266D03*
X018166Y017256D03*
X018166Y017246D03*
X018866Y017826D03*
X018866Y018226D03*
X019496Y018556D03*
X019596Y018666D03*
D18*
X018866Y018206D03*
X018886Y017816D03*
X018116Y017136D03*
X017546Y019156D03*
X016746Y019946D03*
X016766Y020096D03*
X016596Y020076D03*
X016416Y020086D03*
X016416Y020096D03*
X016416Y020106D03*
X016416Y020116D03*
X015896Y020936D03*
X015886Y020946D03*
X015876Y020956D03*
X015866Y020966D03*
X015856Y020976D03*
X015846Y020986D03*
X015836Y020996D03*
X015826Y021006D03*
X015816Y021016D03*
X015806Y021026D03*
X015796Y021036D03*
X015786Y021046D03*
X015776Y021056D03*
X015976Y021096D03*
X015996Y021176D03*
X015996Y021186D03*
X015996Y021196D03*
X015996Y021206D03*
X016176Y021216D03*
X016176Y021226D03*
X016176Y021236D03*
X016176Y021246D03*
X016176Y021256D03*
X015626Y021306D03*
X015256Y021156D03*
X015246Y021086D03*
X015246Y021076D03*
X015246Y021066D03*
X015066Y021086D03*
X015076Y021136D03*
X015066Y020996D03*
X013686Y018116D03*
X013686Y018106D03*
X013686Y018096D03*
X013686Y018086D03*
X013686Y018076D03*
X013686Y018066D03*
X013686Y018056D03*
X013686Y018046D03*
X013686Y018036D03*
X013686Y018026D03*
X013686Y018016D03*
X013686Y018006D03*
X013686Y017996D03*
X013686Y017986D03*
X013686Y017976D03*
X013686Y017966D03*
X013686Y017956D03*
X013686Y017946D03*
X013686Y017936D03*
X013686Y017926D03*
X013686Y017916D03*
X013576Y018056D03*
X013576Y018066D03*
X013586Y018086D03*
X013586Y018096D03*
X013586Y018106D03*
X013146Y017916D03*
X013136Y017936D03*
X013136Y017946D03*
X013126Y017966D03*
X013086Y018086D03*
X013076Y018106D03*
X013076Y018116D03*
X013066Y018136D03*
X013066Y018146D03*
X011896Y017316D03*
X011906Y017296D03*
X011906Y017286D03*
X011856Y017436D03*
X011846Y017456D03*
X011846Y017466D03*
X011836Y017486D03*
X011836Y017496D03*
X010346Y017466D03*
X010346Y017456D03*
X010346Y017446D03*
X010346Y017436D03*
X010346Y017426D03*
X010346Y017416D03*
X010346Y017406D03*
X010346Y017396D03*
X010346Y017386D03*
X010346Y017376D03*
X010346Y017366D03*
X010346Y017356D03*
X010346Y017346D03*
X010346Y017336D03*
X010346Y017326D03*
X010346Y017316D03*
X010346Y017306D03*
X010346Y017296D03*
X010346Y017286D03*
X010346Y017276D03*
X009436Y018296D03*
D19*
X009441Y018276D03*
X010291Y017496D03*
X010151Y017416D03*
X010151Y017406D03*
X010691Y017286D03*
X011781Y017506D03*
X012601Y017416D03*
X012741Y017496D03*
X012741Y017506D03*
X013121Y017286D03*
X013601Y017286D03*
X013011Y018156D03*
X015551Y020736D03*
X015651Y020936D03*
X015821Y021456D03*
X015921Y021626D03*
X016701Y020356D03*
X016021Y019826D03*
X016511Y019136D03*
X016521Y019126D03*
X016781Y019356D03*
X016791Y019366D03*
X016811Y019376D03*
X016841Y019396D03*
X017621Y019026D03*
X017771Y018006D03*
X017801Y017986D03*
X017821Y017976D03*
X017831Y017966D03*
X017851Y017956D03*
X017861Y017946D03*
X017881Y017936D03*
X017911Y017916D03*
X018211Y017696D03*
X018771Y017876D03*
X018881Y018306D03*
X019201Y019226D03*
D20*
X019181Y019276D03*
X018891Y018356D03*
X018891Y018346D03*
X017641Y018986D03*
X016701Y019716D03*
X016531Y020216D03*
X016031Y019786D03*
X016031Y019776D03*
X016551Y019066D03*
X017261Y017806D03*
X015541Y020746D03*
X012611Y018086D03*
X011731Y018056D03*
X011731Y018046D03*
X012241Y017286D03*
X013601Y017616D03*
X009441Y017946D03*
D21*
X010696Y017296D03*
X011086Y018066D03*
X011086Y018076D03*
X011086Y018086D03*
X011086Y018096D03*
X011086Y018106D03*
X011086Y018116D03*
X011086Y018126D03*
X011086Y018136D03*
X012246Y017636D03*
X012616Y018096D03*
X012616Y018106D03*
X013126Y017296D03*
X013596Y017296D03*
X014266Y018066D03*
X014266Y018076D03*
X014266Y018086D03*
X014266Y018096D03*
X014266Y018106D03*
X014266Y018116D03*
X014266Y018126D03*
X014266Y018136D03*
X016026Y019796D03*
X016546Y019076D03*
X017636Y018996D03*
X018226Y017716D03*
X018736Y017896D03*
X018886Y018336D03*
X019186Y019266D03*
X015896Y021636D03*
X015746Y021716D03*
X015626Y021276D03*
D22*
X015511Y021196D03*
X015501Y021186D03*
X015501Y021046D03*
X015511Y021036D03*
X015311Y020906D03*
X015301Y020916D03*
X015151Y020796D03*
X015141Y020806D03*
X015121Y020836D03*
X015161Y020776D03*
X015171Y020766D03*
X015841Y020716D03*
X015851Y020736D03*
X015851Y020746D03*
X015861Y020756D03*
X015861Y020766D03*
X015751Y021186D03*
X015741Y021196D03*
X015931Y021366D03*
X015941Y021356D03*
X016091Y021476D03*
X016091Y021486D03*
X016081Y021496D03*
X016071Y021506D03*
X016101Y021466D03*
X016561Y020736D03*
X016791Y020116D03*
X017381Y019956D03*
X017401Y019986D03*
X017411Y020006D03*
X017421Y020026D03*
X017431Y020036D03*
X017431Y020046D03*
X017561Y019126D03*
X017571Y019116D03*
X018771Y018896D03*
X018791Y018866D03*
X018811Y018836D03*
X018821Y018816D03*
X018841Y018786D03*
X018851Y018766D03*
X018861Y018746D03*
X018871Y018736D03*
X018881Y018716D03*
X018891Y018696D03*
X018901Y018686D03*
X018901Y018676D03*
X018871Y018236D03*
X019581Y018686D03*
X019591Y018676D03*
X018171Y017656D03*
X018111Y017146D03*
X016011Y019926D03*
X016011Y019936D03*
X016001Y019946D03*
X016001Y019956D03*
X015991Y019966D03*
X015861Y020296D03*
X013531Y017966D03*
X013531Y017956D03*
X013491Y017556D03*
X013481Y017546D03*
X013481Y017376D03*
X013701Y017356D03*
X013711Y017366D03*
X013221Y017356D03*
X013031Y017356D03*
X012781Y017626D03*
X012671Y017456D03*
X012561Y017306D03*
X012561Y017296D03*
X012101Y017366D03*
X012091Y017536D03*
X012101Y017546D03*
X011781Y017616D03*
X011621Y017966D03*
X010811Y017546D03*
X010801Y017556D03*
X010581Y017546D03*
X010581Y017366D03*
X010591Y017356D03*
X010331Y017616D03*
X010331Y017626D03*
X010231Y017466D03*
X010221Y017456D03*
X010111Y017296D03*
X009541Y018006D03*
X009551Y018016D03*
X009551Y018186D03*
X009541Y018196D03*
X009341Y018196D03*
X009341Y017996D03*
X012451Y017926D03*
X012451Y017916D03*
X012461Y017936D03*
X012471Y017956D03*
X012481Y017966D03*
X012481Y017976D03*
X012491Y017986D03*
X012501Y018006D03*
X012511Y018026D03*
X012521Y018036D03*
X012531Y018056D03*
X012551Y018176D03*
X012521Y018216D03*
X012511Y018226D03*
X012501Y018236D03*
X012491Y018246D03*
X012481Y018266D03*
X012471Y018276D03*
X012461Y018286D03*
X012671Y018046D03*
X012671Y018036D03*
X013011Y018256D03*
X013011Y018266D03*
D23*
X013011Y018056D03*
X013601Y017306D03*
X013991Y017566D03*
X013991Y017576D03*
X013991Y017586D03*
X013991Y017596D03*
X013991Y017606D03*
X013991Y017616D03*
X013991Y017626D03*
X013991Y017636D03*
X013991Y017646D03*
X012231Y017296D03*
X011721Y018066D03*
X010641Y018206D03*
X010641Y018216D03*
X010641Y018226D03*
X010641Y018236D03*
X010641Y018246D03*
X010641Y018256D03*
X010641Y018266D03*
X010641Y018276D03*
X010641Y018286D03*
X010261Y018286D03*
X010261Y018276D03*
X010261Y018266D03*
X010261Y018256D03*
X010261Y018246D03*
X010261Y018236D03*
X010261Y018226D03*
X010261Y018216D03*
X010261Y018206D03*
X009441Y018246D03*
X009441Y017956D03*
X015701Y019036D03*
X015701Y019046D03*
X015701Y019056D03*
X015701Y019066D03*
X015691Y019096D03*
X015691Y019106D03*
X015691Y019116D03*
X015691Y019126D03*
X015691Y019136D03*
X015691Y019146D03*
X015681Y019166D03*
X015681Y019176D03*
X015681Y019186D03*
X015681Y019196D03*
X015681Y019206D03*
X015681Y019216D03*
X015681Y019226D03*
X015681Y019236D03*
X015681Y019246D03*
X015681Y019256D03*
X015681Y019266D03*
X015681Y019276D03*
X015671Y019306D03*
X015671Y019316D03*
X015671Y019326D03*
X015671Y019336D03*
X015671Y019346D03*
X015671Y019356D03*
X015671Y019366D03*
X015671Y019376D03*
X015671Y019386D03*
X015671Y019396D03*
X015671Y019406D03*
X015681Y019436D03*
X015681Y019446D03*
X015681Y019456D03*
X015681Y019466D03*
X015681Y019476D03*
X015681Y019486D03*
X015681Y019496D03*
X015681Y019506D03*
X015681Y019516D03*
X015681Y019526D03*
X015681Y019536D03*
X015681Y019546D03*
X015691Y019566D03*
X015691Y019576D03*
X015691Y019586D03*
X015691Y019596D03*
X015691Y019606D03*
X015691Y019616D03*
X015701Y019636D03*
X015701Y019646D03*
X015701Y019656D03*
X015701Y019666D03*
X015711Y019696D03*
X015711Y019706D03*
X015711Y019716D03*
X015721Y019746D03*
X015721Y019756D03*
X015731Y019796D03*
X016031Y019756D03*
X016501Y019946D03*
X016511Y019936D03*
X016491Y019986D03*
X016491Y019996D03*
X016561Y020236D03*
X016701Y020346D03*
X016841Y020236D03*
X016871Y020196D03*
X016871Y020186D03*
X016571Y019026D03*
X016581Y019016D03*
X015741Y018876D03*
X015731Y018916D03*
X015721Y018956D03*
X015711Y018996D03*
X015711Y019006D03*
X017661Y018956D03*
X018891Y018366D03*
X019171Y019296D03*
X019171Y019306D03*
X019161Y019506D03*
X019161Y019516D03*
X019161Y019526D03*
X019161Y019536D03*
X019161Y019546D03*
X019161Y019556D03*
X019161Y019566D03*
X019161Y019576D03*
X019151Y019606D03*
X019151Y019616D03*
X019151Y019626D03*
X019151Y019636D03*
X019141Y019666D03*
X019141Y019676D03*
X019141Y019686D03*
X019131Y019726D03*
X019131Y019736D03*
X019121Y019776D03*
X018091Y017216D03*
D24*
X018096Y017206D03*
X018236Y017726D03*
X017656Y018966D03*
X017646Y018976D03*
X016566Y019036D03*
X016566Y019046D03*
X016556Y019056D03*
X016036Y019766D03*
X015676Y019426D03*
X015676Y019416D03*
X015676Y019296D03*
X015676Y019286D03*
X016496Y019956D03*
X016496Y019966D03*
X016496Y019976D03*
X016546Y020226D03*
X016856Y020226D03*
X016866Y020216D03*
X016866Y020206D03*
X015626Y021266D03*
X015716Y021516D03*
X019176Y019286D03*
X013126Y017306D03*
X012606Y018066D03*
X012606Y018076D03*
X012236Y017626D03*
X011726Y018276D03*
X010696Y017616D03*
X010696Y017306D03*
X009436Y018256D03*
D25*
X009866Y018256D03*
X009866Y018266D03*
X009866Y018276D03*
X009866Y018286D03*
X009866Y018246D03*
X009866Y018236D03*
X009866Y018226D03*
X009866Y018216D03*
X009866Y018206D03*
X010696Y017606D03*
X010696Y017316D03*
X011066Y018206D03*
X011716Y018266D03*
X011716Y018076D03*
X012126Y018206D03*
X012126Y018216D03*
X012126Y018226D03*
X012126Y018236D03*
X012126Y018246D03*
X012126Y018256D03*
X012126Y018266D03*
X012126Y018276D03*
X012126Y018286D03*
X012226Y017616D03*
X012226Y017306D03*
X011776Y017406D03*
X013126Y017316D03*
X013596Y017606D03*
X014246Y018206D03*
X015756Y018816D03*
X015756Y018826D03*
X015756Y018836D03*
X015746Y018846D03*
X015746Y018856D03*
X015746Y018866D03*
X015736Y018886D03*
X015736Y018896D03*
X015736Y018906D03*
X015726Y018926D03*
X015726Y018936D03*
X015726Y018946D03*
X015716Y018966D03*
X015716Y018976D03*
X015716Y018986D03*
X015706Y019016D03*
X015706Y019026D03*
X015696Y019076D03*
X015696Y019086D03*
X015686Y019156D03*
X015766Y018806D03*
X015766Y018796D03*
X015776Y018766D03*
X015796Y018716D03*
X016586Y019006D03*
X017246Y018366D03*
X017666Y018946D03*
X016876Y020176D03*
X016496Y020046D03*
X016496Y020036D03*
X016496Y020026D03*
X016496Y020016D03*
X016496Y020006D03*
X016036Y019746D03*
X015746Y019836D03*
X015746Y019846D03*
X015746Y019856D03*
X015756Y019866D03*
X015756Y019876D03*
X015756Y019886D03*
X015766Y019906D03*
X015766Y019916D03*
X015776Y019936D03*
X015786Y019966D03*
X015736Y019826D03*
X015736Y019816D03*
X015736Y019806D03*
X015726Y019786D03*
X015726Y019776D03*
X015726Y019766D03*
X015716Y019736D03*
X015716Y019726D03*
X015706Y019686D03*
X015706Y019676D03*
X015696Y019626D03*
X015686Y019556D03*
X015536Y020756D03*
X015626Y021256D03*
X015726Y021506D03*
X015756Y021706D03*
X019056Y019976D03*
X019066Y019956D03*
X019076Y019926D03*
X019076Y019916D03*
X019086Y019896D03*
X019086Y019886D03*
X019096Y019866D03*
X019096Y019856D03*
X019106Y019836D03*
X019106Y019826D03*
X019106Y019816D03*
X019116Y019806D03*
X019116Y019796D03*
X019116Y019786D03*
X019126Y019766D03*
X019126Y019756D03*
X019126Y019746D03*
X019136Y019716D03*
X019136Y019706D03*
X019136Y019696D03*
X019146Y019656D03*
X019146Y019646D03*
X019156Y019596D03*
X019156Y019586D03*
X019166Y019496D03*
X019166Y019316D03*
X018896Y018386D03*
X018896Y018376D03*
X018246Y017736D03*
X018086Y017226D03*
D26*
X018006Y018076D03*
X018846Y017836D03*
X018876Y018246D03*
X018886Y018706D03*
X018876Y018726D03*
X018856Y018756D03*
X018846Y018776D03*
X018836Y018796D03*
X018826Y018806D03*
X018816Y018826D03*
X018806Y018846D03*
X018796Y018856D03*
X018786Y018876D03*
X018776Y018886D03*
X018766Y018906D03*
X018756Y018916D03*
X018756Y018926D03*
X018746Y018936D03*
X018736Y018946D03*
X018736Y018956D03*
X018726Y018966D03*
X018716Y018976D03*
X018716Y018986D03*
X018706Y018996D03*
X018696Y019006D03*
X018696Y019016D03*
X018686Y019026D03*
X018676Y019036D03*
X018666Y019056D03*
X018656Y019066D03*
X018646Y019076D03*
X018646Y019086D03*
X018636Y019096D03*
X018626Y019106D03*
X018616Y019126D03*
X018606Y019136D03*
X018596Y019146D03*
X018586Y019166D03*
X018576Y019176D03*
X018556Y019206D03*
X018546Y019216D03*
X018516Y019256D03*
X018506Y019266D03*
X018476Y019306D03*
X018926Y019536D03*
X018956Y019496D03*
X019246Y019126D03*
X019276Y019086D03*
X019286Y019076D03*
X019316Y019036D03*
X019326Y019026D03*
X019346Y018996D03*
X019356Y018986D03*
X019386Y018946D03*
X019396Y018936D03*
X019426Y018896D03*
X019456Y018856D03*
X019466Y018846D03*
X019496Y018806D03*
X019526Y018766D03*
X019536Y018756D03*
X019566Y018716D03*
X019576Y018706D03*
X019576Y018696D03*
X017576Y019106D03*
X017266Y019796D03*
X017296Y019836D03*
X017306Y019846D03*
X017326Y019876D03*
X017336Y019886D03*
X017346Y019906D03*
X017356Y019916D03*
X017366Y019926D03*
X017366Y019936D03*
X017376Y019946D03*
X017386Y019966D03*
X017396Y019976D03*
X017406Y019996D03*
X017416Y020016D03*
X016916Y019846D03*
X016906Y019826D03*
X016446Y020146D03*
X016466Y020606D03*
X016476Y020616D03*
X016496Y020646D03*
X016506Y020656D03*
X016526Y020686D03*
X016536Y020696D03*
X016546Y020716D03*
X016556Y020726D03*
X015926Y021376D03*
X015916Y021386D03*
X015906Y021396D03*
X016046Y021536D03*
X016056Y021526D03*
X016066Y021516D03*
X015346Y020866D03*
X015336Y020876D03*
X015326Y020886D03*
X015316Y020896D03*
X015156Y020786D03*
X015176Y020756D03*
X015186Y020746D03*
X015856Y020286D03*
X015856Y020276D03*
X016016Y019916D03*
X016016Y019906D03*
X016436Y019266D03*
X016446Y019256D03*
X016466Y019226D03*
X016696Y019266D03*
X016696Y019276D03*
X016706Y019256D03*
X016726Y019226D03*
X016736Y019216D03*
X013706Y017556D03*
X013696Y017566D03*
X013496Y017356D03*
X013536Y017976D03*
X012776Y017616D03*
X012776Y017606D03*
X012566Y017316D03*
X012666Y018056D03*
X011776Y017606D03*
X011606Y018126D03*
X010796Y017356D03*
X010586Y017556D03*
X010326Y017606D03*
X010116Y017316D03*
X010116Y017306D03*
X009536Y017996D03*
X009536Y018206D03*
X009346Y018206D03*
D27*
X009441Y018236D03*
X009441Y017966D03*
X009861Y017966D03*
X009861Y017976D03*
X009861Y017986D03*
X009861Y017956D03*
X009861Y017946D03*
X009861Y017936D03*
X009861Y017926D03*
X009861Y017916D03*
X011061Y018216D03*
X011061Y018226D03*
X011061Y018236D03*
X011061Y018246D03*
X011061Y018256D03*
X011061Y018266D03*
X011061Y018276D03*
X011061Y018286D03*
X011711Y018256D03*
X011711Y018086D03*
X012121Y017986D03*
X012121Y017976D03*
X012121Y017966D03*
X012121Y017956D03*
X012121Y017946D03*
X012121Y017936D03*
X012121Y017926D03*
X012121Y017916D03*
X012221Y017606D03*
X012221Y017316D03*
X011781Y017396D03*
X013121Y017326D03*
X013601Y017316D03*
X013011Y018026D03*
X013011Y018036D03*
X013011Y018046D03*
X014241Y018216D03*
X014241Y018226D03*
X014241Y018236D03*
X014241Y018246D03*
X014241Y018256D03*
X014241Y018266D03*
X014241Y018276D03*
X014241Y018286D03*
X015771Y018776D03*
X015771Y018786D03*
X015781Y018756D03*
X015781Y018746D03*
X015791Y018736D03*
X015791Y018726D03*
X015801Y018706D03*
X015801Y018696D03*
X015811Y018686D03*
X015811Y018676D03*
X015821Y018656D03*
X015831Y018636D03*
X016591Y018996D03*
X016601Y018986D03*
X017231Y018376D03*
X017231Y017816D03*
X018081Y017236D03*
X017671Y018936D03*
X016871Y020166D03*
X016501Y020056D03*
X016041Y019736D03*
X015761Y019896D03*
X015771Y019926D03*
X015781Y019946D03*
X015781Y019956D03*
X015501Y020566D03*
X015531Y020766D03*
X016181Y020956D03*
X016641Y020796D03*
X015741Y021486D03*
X015731Y021496D03*
X018991Y020126D03*
X019001Y020106D03*
X019011Y020086D03*
X019021Y020066D03*
X019021Y020056D03*
X019031Y020046D03*
X019031Y020036D03*
X019041Y020026D03*
X019041Y020016D03*
X019041Y020006D03*
X019051Y019996D03*
X019051Y019986D03*
X019061Y019966D03*
X019071Y019946D03*
X019071Y019936D03*
X019081Y019906D03*
X019091Y019876D03*
X019101Y019846D03*
X019161Y019326D03*
D28*
X019156Y019336D03*
X019156Y019346D03*
X019016Y020076D03*
X019006Y020096D03*
X018996Y020116D03*
X018986Y020136D03*
X018976Y020156D03*
X018966Y020176D03*
X017676Y018926D03*
X016616Y018966D03*
X016606Y018976D03*
X016706Y019726D03*
X016876Y020136D03*
X016876Y020146D03*
X016876Y020156D03*
X017416Y020376D03*
X016616Y020806D03*
X015846Y020106D03*
X015846Y020096D03*
X016036Y019726D03*
X015816Y018666D03*
X015826Y018646D03*
X015836Y018626D03*
X015836Y018616D03*
X015846Y018606D03*
X015846Y018596D03*
X015856Y018586D03*
X015856Y018576D03*
X015866Y018566D03*
X015866Y018556D03*
X015876Y018546D03*
X015876Y018536D03*
X015886Y018526D03*
X015896Y018506D03*
X014236Y017986D03*
X014236Y017976D03*
X014236Y017966D03*
X014236Y017956D03*
X014236Y017946D03*
X014236Y017936D03*
X014236Y017926D03*
X014236Y017916D03*
X013596Y017596D03*
X013596Y017326D03*
X013126Y017336D03*
X012216Y017326D03*
X012216Y017596D03*
X011776Y017386D03*
X011776Y017376D03*
X011706Y018096D03*
X011706Y018236D03*
X011706Y018246D03*
X011056Y017986D03*
X011056Y017976D03*
X011056Y017966D03*
X011056Y017956D03*
X011056Y017946D03*
X011056Y017936D03*
X011056Y017926D03*
X011056Y017916D03*
X010696Y017596D03*
X010696Y017326D03*
X015626Y021246D03*
X015766Y021696D03*
X018896Y018406D03*
X018896Y018396D03*
X018246Y017746D03*
D29*
X018181Y017666D03*
X018831Y017846D03*
X019561Y018726D03*
X019551Y018736D03*
X019541Y018746D03*
X019521Y018776D03*
X019511Y018786D03*
X019501Y018796D03*
X019491Y018816D03*
X019481Y018826D03*
X019471Y018836D03*
X019451Y018866D03*
X019441Y018876D03*
X019431Y018886D03*
X019421Y018906D03*
X019411Y018916D03*
X019401Y018926D03*
X019381Y018956D03*
X019371Y018966D03*
X019361Y018976D03*
X019341Y019006D03*
X019331Y019016D03*
X019311Y019046D03*
X019301Y019056D03*
X019291Y019066D03*
X019271Y019096D03*
X019261Y019106D03*
X019251Y019116D03*
X019241Y019136D03*
X019231Y019146D03*
X019221Y019156D03*
X019221Y019166D03*
X018951Y019506D03*
X018941Y019516D03*
X018931Y019526D03*
X018921Y019546D03*
X018911Y019556D03*
X018541Y019226D03*
X018531Y019236D03*
X018521Y019246D03*
X018501Y019276D03*
X018491Y019286D03*
X018481Y019296D03*
X018471Y019316D03*
X018461Y019326D03*
X018451Y019336D03*
X018441Y019346D03*
X018431Y019356D03*
X018431Y019366D03*
X018421Y019376D03*
X018411Y019386D03*
X018401Y019396D03*
X018391Y019406D03*
X018381Y019416D03*
X018381Y019426D03*
X018371Y019436D03*
X018361Y019446D03*
X018351Y019456D03*
X018341Y019466D03*
X018331Y019476D03*
X018311Y019506D03*
X018301Y019516D03*
X018291Y019526D03*
X018281Y019536D03*
X018271Y019546D03*
X018561Y019196D03*
X018571Y019186D03*
X018591Y019156D03*
X018621Y019116D03*
X018671Y019046D03*
X017581Y019096D03*
X016891Y019036D03*
X016881Y019046D03*
X016821Y019116D03*
X016811Y019126D03*
X016801Y019136D03*
X016791Y019146D03*
X016781Y019156D03*
X016771Y019166D03*
X016771Y019176D03*
X016761Y019186D03*
X016751Y019196D03*
X016741Y019206D03*
X016721Y019236D03*
X016711Y019246D03*
X016471Y019216D03*
X016461Y019236D03*
X016451Y019246D03*
X016431Y019276D03*
X016911Y019836D03*
X016921Y019856D03*
X016931Y019876D03*
X016971Y020056D03*
X016971Y020066D03*
X016971Y020076D03*
X016971Y020086D03*
X016961Y020096D03*
X016961Y020106D03*
X016701Y020366D03*
X016461Y020596D03*
X016451Y020586D03*
X016441Y020576D03*
X016431Y020566D03*
X016421Y020546D03*
X016411Y020536D03*
X016401Y020526D03*
X016391Y020516D03*
X016381Y020506D03*
X016481Y020626D03*
X016491Y020636D03*
X016511Y020666D03*
X016521Y020676D03*
X016541Y020706D03*
X015901Y021406D03*
X016031Y021546D03*
X016021Y021556D03*
X016011Y021566D03*
X015691Y021546D03*
X015731Y021206D03*
X015521Y021206D03*
X015521Y021026D03*
X015551Y020726D03*
X015511Y020546D03*
X015231Y020706D03*
X015221Y020716D03*
X015211Y020726D03*
X015201Y020736D03*
X016021Y019896D03*
X017181Y019696D03*
X017191Y019706D03*
X017201Y019716D03*
X017211Y019726D03*
X017221Y019736D03*
X017231Y019756D03*
X017241Y019766D03*
X017251Y019776D03*
X017261Y019786D03*
X017271Y019806D03*
X017281Y019816D03*
X017291Y019826D03*
X017311Y019856D03*
X017321Y019866D03*
X017341Y019896D03*
X017421Y017476D03*
X013661Y018266D03*
X013661Y018276D03*
X013661Y018286D03*
X013531Y018006D03*
X013531Y017996D03*
X013531Y017986D03*
X013601Y017646D03*
X013501Y017566D03*
X013511Y017346D03*
X012771Y017596D03*
X012571Y017336D03*
X012571Y017326D03*
X012121Y017356D03*
X012111Y017556D03*
X011781Y017596D03*
X011611Y018206D03*
X010791Y017566D03*
X010691Y017646D03*
X010601Y017566D03*
X010321Y017586D03*
X010321Y017596D03*
X010121Y017326D03*
X010781Y017346D03*
X013011Y018226D03*
X013011Y018236D03*
X013011Y018246D03*
D30*
X012206Y017576D03*
X012206Y017566D03*
X012206Y017346D03*
X011776Y017346D03*
X011776Y017356D03*
X010696Y017336D03*
X010696Y017576D03*
X013596Y017336D03*
X015936Y018436D03*
X015946Y018426D03*
X015946Y018416D03*
X015956Y018406D03*
X015966Y018396D03*
X015966Y018386D03*
X015976Y018376D03*
X015996Y018346D03*
X016636Y018926D03*
X016646Y018916D03*
X016046Y019696D03*
X015846Y020076D03*
X015846Y020086D03*
X015866Y020126D03*
X015496Y020576D03*
X015516Y020786D03*
X015626Y021236D03*
X015776Y021686D03*
X017426Y021226D03*
X018846Y020366D03*
X018866Y020336D03*
X018876Y020326D03*
X018886Y020306D03*
X018896Y020296D03*
X018906Y020276D03*
X018926Y020246D03*
X019146Y019366D03*
X018896Y018416D03*
X017686Y018906D03*
D31*
X017681Y018916D03*
X017211Y018386D03*
X017191Y018396D03*
X017201Y017826D03*
X016631Y018936D03*
X016621Y018946D03*
X016621Y018956D03*
X015931Y018446D03*
X015921Y018456D03*
X015921Y018466D03*
X015911Y018476D03*
X015911Y018486D03*
X015901Y018496D03*
X015891Y018516D03*
X016041Y019706D03*
X016041Y019716D03*
X015861Y020116D03*
X015521Y020776D03*
X015761Y021466D03*
X015751Y021476D03*
X016591Y020816D03*
X016701Y020336D03*
X016881Y020126D03*
X018901Y020286D03*
X018911Y020266D03*
X018921Y020256D03*
X018931Y020236D03*
X018941Y020226D03*
X018941Y020216D03*
X018951Y020206D03*
X018951Y020196D03*
X018961Y020186D03*
X018971Y020166D03*
X018981Y020146D03*
X019151Y019356D03*
X013601Y017586D03*
X013121Y017346D03*
X013011Y017996D03*
X013011Y018006D03*
X013011Y018016D03*
X012211Y017586D03*
X012211Y017336D03*
X011781Y017366D03*
X011701Y018106D03*
X011701Y018116D03*
X011701Y018216D03*
X011701Y018226D03*
X010691Y017586D03*
X009441Y017976D03*
X009441Y017986D03*
X009441Y018216D03*
X009441Y018226D03*
D32*
X009436Y017916D03*
X010126Y017346D03*
X010126Y017336D03*
X010316Y017576D03*
X010606Y017346D03*
X011776Y017576D03*
X011776Y017586D03*
X012576Y017346D03*
X012766Y017576D03*
X012766Y017586D03*
X013536Y018016D03*
X013656Y018226D03*
X013656Y018236D03*
X013656Y018246D03*
X013656Y018256D03*
X013396Y018266D03*
X013396Y018276D03*
X013396Y018286D03*
X013686Y017346D03*
X016016Y019886D03*
X015856Y020256D03*
X015856Y020266D03*
X016256Y020376D03*
X016266Y020386D03*
X016276Y020396D03*
X016286Y020406D03*
X016296Y020416D03*
X016306Y020426D03*
X016316Y020436D03*
X016326Y020446D03*
X016336Y020456D03*
X016346Y020466D03*
X016356Y020476D03*
X016366Y020486D03*
X016376Y020496D03*
X016426Y020556D03*
X016006Y020856D03*
X016166Y020966D03*
X015886Y021416D03*
X015876Y021426D03*
X015626Y021296D03*
X015356Y020856D03*
X015366Y020846D03*
X015246Y020696D03*
X016456Y020156D03*
X016926Y019866D03*
X016936Y019886D03*
X016936Y019896D03*
X016946Y019926D03*
X016956Y019966D03*
X016966Y020016D03*
X016966Y020026D03*
X016966Y020036D03*
X016966Y020046D03*
X017226Y019746D03*
X017176Y019686D03*
X017166Y019676D03*
X017156Y019666D03*
X017146Y019656D03*
X017136Y019646D03*
X017126Y019636D03*
X017116Y019626D03*
X017106Y019616D03*
X017096Y019606D03*
X017086Y019596D03*
X017076Y019586D03*
X017066Y019576D03*
X016696Y019286D03*
X016826Y019106D03*
X016836Y019096D03*
X016846Y019086D03*
X016856Y019076D03*
X016866Y019066D03*
X016876Y019056D03*
X016896Y019026D03*
X016906Y019016D03*
X016916Y019006D03*
X016926Y018996D03*
X016936Y018986D03*
X016946Y018976D03*
X016956Y018966D03*
X016966Y018956D03*
X016976Y018946D03*
X016986Y018936D03*
X016996Y018926D03*
X017006Y018916D03*
X017016Y018906D03*
X017586Y019086D03*
X018316Y019496D03*
X018326Y019486D03*
X018906Y019566D03*
X019216Y019176D03*
X018876Y018266D03*
X018876Y018256D03*
X017996Y018086D03*
X018116Y017156D03*
X016476Y019206D03*
D33*
X016501Y019156D03*
X016711Y019306D03*
X016871Y019416D03*
X016881Y019426D03*
X016901Y019436D03*
X016911Y019446D03*
X016701Y019706D03*
X016481Y020176D03*
X016141Y020276D03*
X016111Y020256D03*
X016101Y020246D03*
X016091Y020236D03*
X016071Y020226D03*
X016061Y020216D03*
X015851Y020226D03*
X015851Y020236D03*
X016021Y019856D03*
X016021Y019846D03*
X015291Y020666D03*
X015401Y020826D03*
X015671Y020926D03*
X015941Y021616D03*
X017311Y020416D03*
X017321Y020406D03*
X017341Y020396D03*
X017351Y020386D03*
X017601Y019056D03*
X017581Y018416D03*
X017591Y018406D03*
X017631Y018376D03*
X017641Y018366D03*
X017671Y018346D03*
X017681Y018336D03*
X017721Y018306D03*
X017731Y018296D03*
X017761Y018276D03*
X017771Y018266D03*
X017801Y018246D03*
X017811Y018236D03*
X017841Y018216D03*
X017851Y018206D03*
X017881Y018186D03*
X017891Y018176D03*
X017921Y018156D03*
X017931Y018146D03*
X017951Y018136D03*
X017961Y018126D03*
X017971Y018116D03*
X017671Y018076D03*
X017641Y018096D03*
X017631Y018106D03*
X017611Y018116D03*
X017601Y018126D03*
X017591Y018136D03*
X017571Y018146D03*
X017561Y018156D03*
X017551Y018166D03*
X017531Y018176D03*
X017521Y018186D03*
X017511Y018196D03*
X017481Y018216D03*
X017471Y018226D03*
X017431Y018256D03*
X017301Y017796D03*
X017321Y017786D03*
X017331Y017776D03*
X017371Y017746D03*
X017731Y017466D03*
X017741Y017456D03*
X017781Y017426D03*
X017791Y017416D03*
X017831Y017386D03*
X017871Y017356D03*
X017881Y017346D03*
X017921Y017316D03*
X017961Y017286D03*
X017971Y017276D03*
X018011Y017246D03*
X018201Y017686D03*
X018791Y017866D03*
X018881Y018286D03*
X018881Y018296D03*
X019201Y019206D03*
X013641Y018146D03*
X013641Y018136D03*
X013641Y018126D03*
X013411Y018136D03*
X013411Y018146D03*
X013411Y018156D03*
X013411Y018166D03*
X013011Y018166D03*
X013011Y018176D03*
X013011Y018186D03*
X012751Y017536D03*
X012591Y017386D03*
X011781Y017536D03*
X010301Y017536D03*
X010301Y017526D03*
X010141Y017386D03*
X010141Y017376D03*
X013601Y017636D03*
D34*
X013416Y018096D03*
X013416Y018106D03*
X013416Y018116D03*
X013416Y018126D03*
X012746Y017526D03*
X012746Y017516D03*
X012596Y017406D03*
X012596Y017396D03*
X012266Y017646D03*
X011776Y017526D03*
X011776Y017516D03*
X010696Y017636D03*
X010296Y017516D03*
X010296Y017506D03*
X010146Y017396D03*
X009436Y017926D03*
X015306Y020656D03*
X015846Y020216D03*
X016026Y019836D03*
X016496Y020186D03*
X017296Y020426D03*
X016856Y019406D03*
X016826Y019386D03*
X016726Y019316D03*
X016506Y019146D03*
X017606Y019046D03*
X017616Y019036D03*
X017906Y018166D03*
X017786Y017996D03*
X017756Y018016D03*
X017746Y018026D03*
X017726Y018036D03*
X017716Y018046D03*
X017696Y018056D03*
X017686Y018066D03*
X017656Y018086D03*
X018106Y017176D03*
X019206Y019216D03*
X015696Y021536D03*
X015736Y021726D03*
X015626Y021286D03*
D35*
X015711Y021526D03*
X015571Y021006D03*
X015581Y020996D03*
X015591Y020986D03*
X015601Y020976D03*
X015611Y020966D03*
X015621Y020956D03*
X015501Y020556D03*
X016031Y019806D03*
X016521Y020206D03*
X016531Y019096D03*
X016541Y019086D03*
X017631Y019006D03*
X017981Y017876D03*
X018101Y017196D03*
X019191Y019246D03*
X019191Y019256D03*
X014011Y017476D03*
X014011Y017466D03*
X014011Y017456D03*
X014011Y017446D03*
X014011Y017436D03*
X014011Y017426D03*
X014011Y017416D03*
X013601Y017626D03*
X012731Y017476D03*
X012611Y017446D03*
X012621Y018116D03*
X012621Y018126D03*
X012621Y018156D03*
X012151Y018146D03*
X012151Y018136D03*
X012151Y018126D03*
X012151Y018116D03*
X012151Y018106D03*
X012151Y018096D03*
X012151Y018086D03*
X012151Y018076D03*
X012151Y018066D03*
X011741Y018286D03*
X011091Y018146D03*
X010661Y018126D03*
X010661Y018116D03*
X010661Y018106D03*
X010661Y018096D03*
X010661Y018086D03*
X010661Y018076D03*
X010661Y018066D03*
X010661Y018056D03*
X010691Y017626D03*
X010161Y017436D03*
X009891Y018066D03*
X009891Y018076D03*
X009891Y018086D03*
X009891Y018096D03*
X009891Y018106D03*
X009891Y018116D03*
X009891Y018126D03*
X009891Y018136D03*
X009891Y018146D03*
X009441Y018266D03*
X009441Y017936D03*
D36*
X009021Y018206D03*
X009021Y018216D03*
X009021Y018226D03*
X009021Y018236D03*
X009021Y018246D03*
X009021Y018256D03*
X009021Y018266D03*
X009021Y018276D03*
X009021Y018286D03*
X011401Y017566D03*
X013011Y017986D03*
X013601Y017576D03*
X015141Y018206D03*
X015141Y018216D03*
X015141Y018226D03*
X015141Y018236D03*
X015141Y018246D03*
X015141Y018256D03*
X015141Y018266D03*
X015141Y018276D03*
X015141Y018286D03*
X015981Y018366D03*
X015991Y018356D03*
X016001Y018336D03*
X016011Y018326D03*
X016021Y018316D03*
X016651Y018906D03*
X016661Y018896D03*
X017171Y018406D03*
X017691Y018896D03*
X017701Y018886D03*
X018241Y019676D03*
X018881Y020316D03*
X018861Y020346D03*
X018851Y020356D03*
X018841Y020376D03*
X018831Y020386D03*
X018821Y020396D03*
X018801Y020426D03*
X019141Y019376D03*
X018961Y018556D03*
X018901Y018436D03*
X018901Y018426D03*
X016701Y019736D03*
X016051Y019686D03*
X015841Y020066D03*
D37*
X015846Y020056D03*
X015846Y020046D03*
X015876Y020136D03*
X015886Y020146D03*
X016046Y019676D03*
X016666Y018886D03*
X016676Y018876D03*
X017156Y018416D03*
X017176Y017836D03*
X017706Y018876D03*
X018236Y019686D03*
X018816Y020406D03*
X018806Y020416D03*
X018796Y020436D03*
X018786Y020446D03*
X018776Y020456D03*
X019136Y019396D03*
X019136Y019386D03*
X018956Y018546D03*
X018946Y018536D03*
X018246Y017756D03*
X016076Y018246D03*
X016066Y018256D03*
X016056Y018266D03*
X016046Y018276D03*
X016046Y018286D03*
X016036Y018296D03*
X016026Y018306D03*
X014686Y018146D03*
X014686Y018136D03*
X014686Y018126D03*
X014686Y018116D03*
X014686Y018106D03*
X014686Y018096D03*
X014686Y018086D03*
X014686Y018076D03*
X014686Y018066D03*
X015486Y020586D03*
X015506Y020796D03*
X015626Y021216D03*
X015626Y021226D03*
X015786Y021676D03*
X017456Y020366D03*
X011406Y017646D03*
X011406Y017636D03*
X011406Y017626D03*
X011406Y017616D03*
X011406Y017606D03*
X011406Y017596D03*
X011406Y017586D03*
X011406Y017576D03*
D38*
X010691Y017656D03*
X009341Y018046D03*
X013601Y017656D03*
X016761Y019966D03*
X017441Y020106D03*
X017521Y019196D03*
X017531Y019186D03*
X018861Y018186D03*
X018861Y018176D03*
X018921Y017796D03*
X015981Y020836D03*
X015251Y021176D03*
D39*
X015251Y021166D03*
X015071Y021146D03*
X015621Y020816D03*
X015981Y021086D03*
X016151Y021086D03*
X016151Y021096D03*
X015731Y021736D03*
X017441Y020096D03*
X016701Y019696D03*
X017541Y019166D03*
X018901Y017806D03*
X013591Y018116D03*
X013581Y018076D03*
X013571Y018046D03*
X013481Y018056D03*
X013481Y018066D03*
X013481Y018076D03*
X009441Y017906D03*
D40*
X009346Y018166D03*
X013476Y018086D03*
X013486Y018046D03*
X015606Y020646D03*
X015976Y021076D03*
X015076Y021156D03*
X016606Y020086D03*
X016756Y020086D03*
X016756Y019956D03*
X017536Y019176D03*
X018016Y018046D03*
X018866Y018196D03*
D41*
X018851Y018146D03*
X018961Y017776D03*
X017501Y019236D03*
X016731Y020056D03*
X015641Y021456D03*
X009361Y018056D03*
D42*
X009366Y018156D03*
X015626Y020826D03*
X015976Y020826D03*
X015666Y021636D03*
X016636Y020116D03*
X016736Y020066D03*
X016786Y019986D03*
X017506Y019226D03*
X018016Y018036D03*
X018856Y018156D03*
D43*
X018506Y017956D03*
X017506Y017486D03*
X016916Y017996D03*
X016626Y017816D03*
X016286Y018686D03*
X016276Y018706D03*
X016266Y018716D03*
X016136Y019376D03*
X018206Y020896D03*
X018556Y020026D03*
X018566Y020006D03*
X018576Y019996D03*
X018586Y019976D03*
D44*
X018451Y020166D03*
X018441Y020176D03*
X018131Y020926D03*
X016171Y019286D03*
X016391Y018546D03*
X016401Y018536D03*
X016411Y018526D03*
X016881Y018036D03*
X017461Y017496D03*
X018501Y017926D03*
D45*
X018501Y017906D03*
X018231Y017866D03*
X017421Y017506D03*
X016761Y017766D03*
X016861Y018066D03*
X018381Y020236D03*
D46*
X018331Y020286D03*
X016511Y018426D03*
X016851Y018086D03*
X017391Y017516D03*
D47*
X017366Y017526D03*
X018286Y020316D03*
X016816Y020956D03*
D48*
X018261Y020336D03*
X016821Y018136D03*
X016841Y017746D03*
X017341Y017536D03*
D49*
X017311Y017546D03*
X016611Y018356D03*
X019221Y018586D03*
X019231Y018606D03*
X019241Y018616D03*
X019251Y018656D03*
D50*
X018566Y019596D03*
X018556Y019606D03*
X017426Y021186D03*
X016796Y018176D03*
X017286Y017556D03*
D51*
X017266Y017566D03*
X016786Y018196D03*
X018546Y019636D03*
X018196Y020376D03*
D52*
X018531Y019656D03*
X018541Y019646D03*
X017421Y020866D03*
X016661Y018326D03*
X016781Y018206D03*
X017241Y017576D03*
D53*
X017221Y017586D03*
X016771Y018226D03*
D54*
X016766Y018236D03*
X017206Y017596D03*
D55*
X017186Y017606D03*
X017166Y017616D03*
X016756Y018256D03*
X017426Y021176D03*
D56*
X017426Y020856D03*
X018126Y020406D03*
X016746Y018276D03*
X017146Y017626D03*
D57*
X017131Y017636D03*
X017111Y017646D03*
X016741Y018286D03*
D58*
X016736Y018296D03*
X017096Y017656D03*
D59*
X017081Y017666D03*
X016731Y018306D03*
X016391Y020876D03*
D60*
X018096Y020416D03*
X016726Y018316D03*
X017046Y017686D03*
X017066Y017676D03*
D61*
X017031Y017696D03*
D62*
X017016Y017706D03*
X017426Y020846D03*
X017426Y021166D03*
D63*
X016401Y020886D03*
X016971Y017736D03*
X016981Y017726D03*
X017001Y017716D03*
D64*
X016796Y017756D03*
X016846Y018096D03*
X016526Y018416D03*
X018316Y020296D03*
D65*
X018626Y020616D03*
X018636Y020606D03*
X018646Y020596D03*
X018656Y020586D03*
X018666Y020576D03*
X018186Y019756D03*
X018196Y019746D03*
X017486Y020356D03*
X016186Y020946D03*
X015926Y020186D03*
X015916Y020176D03*
X015846Y020016D03*
X015846Y020006D03*
X016736Y018796D03*
X016746Y018786D03*
X016756Y018776D03*
X017066Y018476D03*
X017726Y018836D03*
X018246Y017766D03*
X019116Y019436D03*
X019116Y019446D03*
X016226Y018086D03*
X016216Y018096D03*
X016206Y018106D03*
X016196Y018116D03*
X016186Y018126D03*
X016176Y018136D03*
D66*
X016271Y018046D03*
X016281Y018036D03*
X016881Y018636D03*
X016871Y018646D03*
X016861Y018656D03*
X016851Y018666D03*
X016841Y018676D03*
X016891Y018626D03*
X016901Y018616D03*
X016911Y018606D03*
X016921Y018596D03*
X016931Y018586D03*
X016941Y018576D03*
X017751Y018796D03*
X018151Y019806D03*
X017511Y020346D03*
X016701Y020306D03*
X016581Y019916D03*
X016701Y019756D03*
X016071Y019586D03*
X015851Y019976D03*
X015461Y020616D03*
X015451Y020626D03*
X016571Y020836D03*
X018561Y020676D03*
X018571Y020666D03*
X018581Y020656D03*
X019101Y019486D03*
X019101Y019476D03*
X018241Y017776D03*
D67*
X018501Y017916D03*
X016731Y017776D03*
X018411Y020206D03*
X018101Y020936D03*
D68*
X017421Y020926D03*
X016621Y020106D03*
X016151Y021076D03*
X015981Y021066D03*
X015071Y021166D03*
X017511Y019216D03*
X018861Y018166D03*
X018941Y017786D03*
D69*
X018246Y017786D03*
X017766Y018766D03*
X018396Y019566D03*
X018106Y019866D03*
X018096Y019876D03*
X017556Y020326D03*
X018466Y020746D03*
X016076Y019556D03*
X016346Y017986D03*
X016376Y017966D03*
X016386Y017956D03*
D70*
X016706Y017786D03*
X016386Y018556D03*
X016166Y019296D03*
X017426Y021206D03*
X018456Y020156D03*
X018466Y020146D03*
D71*
X018061Y019916D03*
X018051Y019926D03*
X018041Y019936D03*
X017611Y020296D03*
X016701Y020286D03*
X016701Y019786D03*
X016091Y019516D03*
X016431Y017926D03*
X018241Y017796D03*
X018351Y017876D03*
X018361Y017886D03*
X018381Y017896D03*
X018511Y018006D03*
X018411Y020786D03*
D72*
X018486Y020126D03*
X018496Y020116D03*
X017426Y020896D03*
X016156Y019326D03*
X016156Y019316D03*
X016346Y018596D03*
X016356Y018586D03*
X016366Y018576D03*
X016676Y017796D03*
X018506Y017936D03*
D73*
X018241Y017806D03*
X016951Y017956D03*
X016531Y017866D03*
X016511Y017876D03*
X016131Y019056D03*
X016131Y019066D03*
X016121Y019096D03*
X016121Y019106D03*
X016121Y019116D03*
X016121Y019126D03*
X016121Y019136D03*
X016111Y019146D03*
X016111Y019156D03*
X016111Y019166D03*
X016111Y019176D03*
X016111Y019186D03*
X016101Y019236D03*
X016101Y019246D03*
X016101Y019256D03*
X016101Y019266D03*
X016101Y019276D03*
X016101Y019466D03*
X016101Y019476D03*
X016701Y019806D03*
X016701Y020266D03*
X017421Y020906D03*
X017421Y021216D03*
X017711Y020236D03*
X017721Y020226D03*
X017741Y020216D03*
X017751Y020206D03*
X017911Y020076D03*
X017921Y020066D03*
X017931Y020056D03*
X017941Y020046D03*
X017951Y020036D03*
X017961Y020026D03*
D74*
X018526Y020066D03*
X018536Y020056D03*
X018506Y017946D03*
X018236Y017836D03*
X016906Y018006D03*
X016656Y017806D03*
X016316Y018646D03*
X016306Y018656D03*
X016146Y019346D03*
D75*
X016116Y019426D03*
X016176Y018916D03*
X016176Y018906D03*
X016186Y018886D03*
X016186Y018876D03*
X016196Y018866D03*
X016196Y018856D03*
X016566Y017846D03*
X018236Y017816D03*
X018506Y017976D03*
X018666Y019806D03*
X018656Y019826D03*
X018656Y019836D03*
X018646Y019856D03*
D76*
X018601Y019946D03*
X018591Y019966D03*
X018581Y019986D03*
X018231Y020886D03*
X016541Y020856D03*
X016131Y019386D03*
X016241Y018766D03*
X016251Y018746D03*
X016261Y018736D03*
X016261Y018726D03*
X018241Y017826D03*
D77*
X018506Y017966D03*
X016926Y017986D03*
X016606Y017826D03*
X016246Y018756D03*
X016236Y018776D03*
X016226Y018796D03*
X016216Y018816D03*
X016126Y019396D03*
X016126Y019406D03*
X018596Y019956D03*
X018606Y019936D03*
X018616Y019926D03*
X018616Y019916D03*
D78*
X018621Y019906D03*
X018631Y019896D03*
X018631Y019886D03*
X018641Y019876D03*
X018641Y019866D03*
X018651Y019846D03*
X018271Y020866D03*
X018251Y020876D03*
X016211Y018836D03*
X016211Y018826D03*
X016201Y018846D03*
X016221Y018806D03*
X016231Y018786D03*
X016121Y019416D03*
X016931Y017976D03*
X016591Y017836D03*
D79*
X016891Y018026D03*
X016371Y018566D03*
X016161Y019306D03*
X018161Y020916D03*
X018481Y020136D03*
X018231Y017846D03*
D80*
X018906Y018466D03*
X018906Y018476D03*
X018916Y018486D03*
X019126Y019416D03*
X018216Y019716D03*
X018736Y020506D03*
X018726Y020516D03*
X018716Y020526D03*
X018706Y020536D03*
X018696Y020546D03*
X017716Y018856D03*
X017126Y018436D03*
X016716Y018826D03*
X016706Y018836D03*
X016696Y018846D03*
X016116Y018196D03*
X016126Y018186D03*
X016136Y018176D03*
X016146Y018166D03*
X016156Y018156D03*
X017156Y017846D03*
X016056Y019646D03*
X016056Y019656D03*
X015846Y020026D03*
X015846Y020036D03*
X015896Y020156D03*
X015906Y020166D03*
X016596Y019846D03*
X015806Y021656D03*
X015796Y021666D03*
D81*
X018426Y020196D03*
X018436Y020186D03*
X016426Y018506D03*
X016416Y018516D03*
X016876Y018046D03*
X018236Y017856D03*
D82*
X017731Y018826D03*
X017051Y018486D03*
X017041Y018496D03*
X016791Y018736D03*
X016781Y018746D03*
X016771Y018756D03*
X016761Y018766D03*
X016241Y018076D03*
X017131Y017856D03*
X016061Y019616D03*
X016061Y019626D03*
X015851Y019996D03*
X015471Y020606D03*
X016591Y019876D03*
X016701Y020316D03*
X018171Y019776D03*
X018181Y019766D03*
X018611Y020626D03*
X018601Y020636D03*
X019111Y019456D03*
D83*
X018691Y019736D03*
X018681Y019756D03*
X018681Y019766D03*
X018681Y019776D03*
X018671Y019786D03*
X018671Y019796D03*
X018661Y019816D03*
X017841Y020136D03*
X018291Y020856D03*
X016701Y020256D03*
X016701Y020246D03*
X016701Y019816D03*
X016111Y019446D03*
X016111Y019436D03*
X016151Y018986D03*
X016161Y018966D03*
X016161Y018956D03*
X016161Y018946D03*
X016171Y018936D03*
X016171Y018926D03*
X016181Y018896D03*
X016941Y017966D03*
X016551Y017856D03*
D84*
X016256Y018056D03*
X016246Y018066D03*
X016836Y018686D03*
X016826Y018696D03*
X016816Y018706D03*
X016806Y018716D03*
X016796Y018726D03*
X016956Y018566D03*
X016966Y018556D03*
X016976Y018546D03*
X016986Y018536D03*
X017006Y018526D03*
X017016Y018516D03*
X017026Y018506D03*
X017106Y017866D03*
X017746Y018806D03*
X017736Y018816D03*
X018166Y019786D03*
X018156Y019796D03*
X018596Y020646D03*
X019106Y019466D03*
X016586Y019886D03*
X016586Y019896D03*
X016586Y019906D03*
X016066Y019606D03*
X016066Y019596D03*
X015846Y019986D03*
X015936Y020196D03*
X015946Y020206D03*
D85*
X015446Y020636D03*
X016076Y019576D03*
X016586Y019926D03*
X017536Y020336D03*
X018126Y019836D03*
X018136Y019826D03*
X018146Y019816D03*
X018546Y020686D03*
X018536Y020696D03*
X017756Y018786D03*
X017086Y017876D03*
X016316Y018006D03*
X016306Y018016D03*
X016296Y018026D03*
D86*
X016331Y017996D03*
X016361Y017976D03*
X017071Y017886D03*
X017761Y018776D03*
X018121Y019846D03*
X018111Y019856D03*
X018521Y020706D03*
X018511Y020716D03*
X018491Y020726D03*
X018481Y020736D03*
X016701Y020296D03*
X016701Y019766D03*
X016071Y019566D03*
D87*
X016106Y019226D03*
X016106Y019216D03*
X016106Y019206D03*
X016106Y019196D03*
X016496Y017886D03*
X017966Y020016D03*
X017696Y020246D03*
X017676Y020256D03*
X018346Y020826D03*
D88*
X018451Y020756D03*
X017581Y020316D03*
X018081Y019896D03*
X018091Y019886D03*
X017771Y018756D03*
X018511Y018016D03*
X017051Y017896D03*
X017031Y017906D03*
X016401Y017946D03*
X016081Y019536D03*
X016081Y019546D03*
X016701Y019776D03*
D89*
X016701Y019796D03*
X016701Y020276D03*
X017651Y020276D03*
X017661Y020266D03*
X017981Y020006D03*
X017991Y019996D03*
X018001Y019986D03*
X018011Y019976D03*
X018361Y020816D03*
X016101Y019486D03*
X016961Y017946D03*
X016481Y017896D03*
X018511Y017996D03*
D90*
X016996Y017926D03*
X016976Y017936D03*
X016466Y017906D03*
X016446Y017916D03*
X016096Y019496D03*
X016096Y019506D03*
X016556Y020846D03*
X017636Y020286D03*
X018016Y019966D03*
X018026Y019956D03*
X018036Y019946D03*
X018396Y020796D03*
X018376Y020806D03*
D91*
X018426Y020776D03*
X018436Y020766D03*
X017596Y020306D03*
X018066Y019906D03*
X017776Y018746D03*
X017786Y018736D03*
X017796Y018726D03*
X017806Y018716D03*
X017816Y018706D03*
X017826Y018696D03*
X017836Y018686D03*
X017846Y018676D03*
X017856Y018666D03*
X017866Y018656D03*
X017876Y018646D03*
X017886Y018636D03*
X017896Y018626D03*
X017906Y018616D03*
X017916Y018606D03*
X017926Y018596D03*
X017936Y018586D03*
X017946Y018576D03*
X017956Y018566D03*
X017966Y018556D03*
X017976Y018546D03*
X017986Y018536D03*
X017996Y018526D03*
X018006Y018516D03*
X018016Y018506D03*
X018026Y018496D03*
X018036Y018486D03*
X018046Y018476D03*
X018056Y018466D03*
X018066Y018456D03*
X018076Y018446D03*
X018086Y018436D03*
X018096Y018426D03*
X018106Y018416D03*
X018116Y018406D03*
X018126Y018396D03*
X018136Y018386D03*
X018146Y018376D03*
X018156Y018366D03*
X018166Y018356D03*
X018176Y018346D03*
X018186Y018336D03*
X018196Y018326D03*
X018206Y018316D03*
X018216Y018306D03*
X018226Y018296D03*
X018236Y018286D03*
X018246Y018276D03*
X018256Y018266D03*
X018266Y018256D03*
X018276Y018246D03*
X018286Y018236D03*
X018296Y018226D03*
X018306Y018216D03*
X018316Y018206D03*
X018326Y018196D03*
X018336Y018186D03*
X018346Y018176D03*
X018356Y018166D03*
X018366Y018156D03*
X018376Y018146D03*
X018386Y018136D03*
X018396Y018126D03*
X018406Y018116D03*
X018416Y018106D03*
X018426Y018096D03*
X018436Y018086D03*
X018446Y018076D03*
X018456Y018066D03*
X018466Y018056D03*
X018476Y018046D03*
X018486Y018036D03*
X018496Y018026D03*
X017016Y017916D03*
X016416Y017936D03*
X016086Y019526D03*
D92*
X016106Y019456D03*
X016126Y019086D03*
X016126Y019076D03*
X016136Y019046D03*
X016136Y019036D03*
X016136Y019026D03*
X016146Y019016D03*
X016146Y019006D03*
X016146Y018996D03*
X016156Y018976D03*
X017766Y020196D03*
X017776Y020186D03*
X017796Y020176D03*
X017806Y020166D03*
X017816Y020156D03*
X017826Y020146D03*
X017856Y020126D03*
X017866Y020116D03*
X017876Y020106D03*
X017886Y020096D03*
X017896Y020086D03*
X018686Y019746D03*
X018696Y019726D03*
X018696Y019716D03*
X018696Y019706D03*
X018706Y019696D03*
X018706Y019686D03*
X018706Y019676D03*
X018326Y020836D03*
X018306Y020846D03*
X018506Y017986D03*
D93*
X016901Y018016D03*
X016341Y018606D03*
X016331Y018616D03*
X016331Y018626D03*
X016321Y018636D03*
X016151Y019336D03*
X018181Y020906D03*
X018501Y020106D03*
X018511Y020096D03*
X018511Y020086D03*
X018521Y020076D03*
D94*
X018406Y020216D03*
X018396Y020226D03*
X016456Y018476D03*
X016446Y018486D03*
X016436Y018496D03*
X016866Y018056D03*
D95*
X016856Y018076D03*
X016476Y018456D03*
X016466Y018466D03*
X018376Y020246D03*
D96*
X018301Y020306D03*
X018031Y020956D03*
X017421Y021196D03*
X016541Y018406D03*
X016551Y018396D03*
X016841Y018106D03*
D97*
X016831Y018116D03*
X016561Y018386D03*
D98*
X016576Y018376D03*
X016826Y018126D03*
X018276Y020326D03*
D99*
X018246Y020346D03*
X017426Y020876D03*
X019256Y018646D03*
X019246Y018636D03*
X019246Y018626D03*
X019226Y018596D03*
X019206Y018576D03*
X019196Y018566D03*
X016816Y018146D03*
X016596Y018366D03*
D100*
X016731Y018806D03*
X016721Y018816D03*
X017081Y018466D03*
X017091Y018456D03*
X017111Y018446D03*
X017721Y018846D03*
X018211Y019726D03*
X018201Y019736D03*
X018691Y020556D03*
X018681Y020566D03*
X019121Y019426D03*
X017421Y020916D03*
X016591Y019866D03*
X016591Y019856D03*
X016601Y019836D03*
X016611Y019826D03*
X016701Y019746D03*
X016061Y019636D03*
X015481Y020596D03*
X015811Y021646D03*
X016161Y018146D03*
D101*
X016806Y018156D03*
X018576Y019576D03*
X018226Y020356D03*
X016866Y020966D03*
D102*
X017981Y020966D03*
X018211Y020366D03*
X018571Y019586D03*
X016801Y018166D03*
X016631Y018346D03*
D103*
X016641Y018336D03*
X016791Y018186D03*
X018551Y019616D03*
X018551Y019626D03*
D104*
X018231Y019696D03*
X018221Y019706D03*
X018771Y020466D03*
X018761Y020476D03*
X018751Y020486D03*
X018741Y020496D03*
X019131Y019406D03*
X018941Y018526D03*
X018931Y018516D03*
X018931Y018506D03*
X018921Y018496D03*
X018901Y018456D03*
X018901Y018446D03*
X017711Y018866D03*
X017141Y018426D03*
X016691Y018856D03*
X016681Y018866D03*
X016081Y018236D03*
X016091Y018226D03*
X016101Y018216D03*
X016111Y018206D03*
X016051Y019666D03*
X016701Y020326D03*
X016581Y020826D03*
X015501Y020806D03*
D105*
X018176Y020386D03*
X018526Y019666D03*
X016776Y018216D03*
D106*
X016761Y018246D03*
X018151Y020396D03*
D107*
X016381Y020866D03*
X016751Y018266D03*
D108*
X016501Y018436D03*
X016491Y018446D03*
X018351Y020266D03*
X018361Y020256D03*
X018071Y020946D03*
X016781Y020946D03*
D109*
X016141Y019366D03*
X016141Y019356D03*
X016281Y018696D03*
X016291Y018676D03*
X016301Y018666D03*
X018541Y020046D03*
X018551Y020036D03*
X018561Y020016D03*
D110*
X017516Y019206D03*
X016776Y019976D03*
X016746Y020076D03*
X016616Y020096D03*
X015686Y021556D03*
D111*
X015976Y020816D03*
X016796Y019996D03*
X017496Y019246D03*
D112*
X018336Y020276D03*
X017426Y020886D03*
D113*
X018056Y020426D03*
D114*
X017876Y020436D03*
D115*
X017861Y020446D03*
X017851Y020456D03*
D116*
X017836Y020466D03*
X017826Y020476D03*
D117*
X017811Y020486D03*
X017801Y020496D03*
D118*
X017786Y020506D03*
X017776Y020516D03*
X017426Y021096D03*
D119*
X017761Y020526D03*
D120*
X017746Y020536D03*
X017736Y020546D03*
X017716Y020556D03*
D121*
X017701Y020566D03*
X017691Y020576D03*
D122*
X017676Y020586D03*
X017426Y021086D03*
D123*
X017631Y020616D03*
X017641Y020606D03*
X017661Y020596D03*
D124*
X017616Y020626D03*
X017596Y020636D03*
D125*
X017581Y020646D03*
X017561Y020656D03*
D126*
X017546Y020666D03*
X017526Y020676D03*
D127*
X017511Y020686D03*
X017491Y020696D03*
X017471Y020706D03*
X017421Y021076D03*
D128*
X017416Y020736D03*
X017436Y020726D03*
X017456Y020716D03*
D129*
X017326Y020746D03*
D130*
X017321Y020756D03*
D131*
X017316Y020766D03*
X017426Y021056D03*
D132*
X017306Y020776D03*
D133*
X017301Y020786D03*
D134*
X017426Y020796D03*
X017426Y021126D03*
D135*
X017426Y020806D03*
D136*
X017421Y020816D03*
D137*
X017426Y020826D03*
X016526Y020936D03*
D138*
X017426Y020836D03*
D139*
X016411Y020896D03*
D140*
X016421Y020906D03*
D141*
X016436Y020916D03*
X017426Y021146D03*
D142*
X016446Y020926D03*
D143*
X017426Y020976D03*
D144*
X017421Y020986D03*
D145*
X017421Y020996D03*
D146*
X017426Y021006D03*
D147*
X017426Y021016D03*
D148*
X017426Y021026D03*
D149*
X017426Y021036D03*
D150*
X017426Y021046D03*
D151*
X017426Y021066D03*
D152*
X017426Y021106D03*
D153*
X017421Y021116D03*
D154*
X017426Y021136D03*
D155*
X017421Y021156D03*
M02*
