G75*
G70*
%OFA0B0*%
%FSLAX24Y24*%
%IPPOS*%
%LPD*%
%AMOC8*
5,1,8,0,0,1.08239X$1,22.5*
%
%ADD10C,0.1125*%
%ADD11C,0.0400*%
%ADD12OC8,0.0520*%
%ADD13C,0.2540*%
%ADD14C,0.0200*%
D10*
X009668Y004596D03*
X004885Y011428D03*
D11*
X007472Y009126D02*
X008390Y007816D01*
X007080Y006898D01*
X006162Y008208D01*
X007472Y009126D01*
X007649Y007297D02*
X006800Y007297D01*
X006521Y007696D02*
X008219Y007696D01*
X008194Y008095D02*
X006241Y008095D01*
X006570Y008494D02*
X007915Y008494D01*
X007635Y008893D02*
X007140Y008893D01*
D12*
X017441Y007916D03*
X018441Y007916D03*
X020641Y016616D03*
X021641Y016616D03*
X014366Y022466D03*
X013366Y022466D03*
D13*
X010391Y019891D03*
D14*
X003766Y007566D02*
X006766Y004566D01*
X009516Y004566D01*
X008666Y007766D02*
X007276Y008012D01*
X008666Y007766D02*
X016616Y007766D01*
X017066Y007316D01*
X018016Y007316D01*
X018516Y007816D01*
X018516Y007841D01*
X018441Y007916D01*
X018516Y008166D01*
X018516Y009616D01*
X018466Y009616D01*
X018516Y009616D02*
X018516Y013316D01*
X021566Y016366D01*
X021641Y016616D01*
X021416Y016716D01*
X015766Y022366D01*
X014616Y022366D01*
X014366Y022466D01*
X013816Y022366D02*
X019466Y016716D01*
X017516Y014766D01*
X017516Y008166D01*
X017441Y007916D01*
X020641Y016616D02*
X020416Y016716D01*
X019466Y016716D01*
X013816Y022366D02*
X013616Y022366D01*
X013366Y022466D01*
X004766Y011316D02*
X004516Y011316D01*
X003766Y010566D01*
X003766Y007566D01*
M02*
